<?xml version="1.0" encoding="UTF-8"?>
<!DOCTYPE svg PUBLIC "-//W3C//DTD SVG 1.1//EN" "http://www.w3.org/Graphics/SVG/1.1/DTD/svg11.dtd">
<svg xmlns="http://www.w3.org/2000/svg" version="1.1" width="660px" height="169px" style="shape-rendering:geometricPrecision; text-rendering:geometricPrecision; image-rendering:optimizeQuality; fill-rule:evenodd; clip-rule:evenodd" xmlns:xlink="http://www.w3.org/1999/xlink">
<g><path style="opacity:1" fill="#fdfdfd" d="M -0.5,-0.5 C 219.5,-0.5 439.5,-0.5 659.5,-0.5C 659.5,55.8333 659.5,112.167 659.5,168.5C 439.5,168.5 219.5,168.5 -0.5,168.5C -0.5,112.167 -0.5,55.8333 -0.5,-0.5 Z"/></g>
<g><path style="opacity:1" fill="#0d5b5a" d="M 160.5,14.5 C 176.661,13.3385 192.995,13.1718 209.5,14C 204.026,15.4735 200.526,18.9735 199,24.5C 198.333,60.1667 198.333,95.8333 199,131.5C 201.202,136.369 204.702,139.869 209.5,142C 192.833,142.667 176.167,142.667 159.5,142C 161.833,141 164.167,140 166.5,139C 168.458,136.252 170.291,133.418 172,130.5C 172.667,95.5 172.667,60.5 172,25.5C 170.217,19.5473 166.384,15.8806 160.5,14.5 Z"/></g>
<g><path style="opacity:1" fill="#03575e" d="M 180.5,31.5 C 181.5,31.5 182.5,31.5 183.5,31.5C 183.829,65.4065 183.496,99.2398 182.5,133C 183.421,134.756 184.588,134.923 186,133.5C 188.64,134.86 188.807,136.193 186.5,137.5C 183.189,136.647 179.856,136.814 176.5,138C 178.034,138.923 179.701,139.423 181.5,139.5C 187.454,139.72 193.454,139.387 199.5,138.5C 199.5,139.5 199.5,140.5 199.5,141.5C 189.81,141.832 180.144,141.498 170.5,140.5C 171.714,138.931 173.381,138.098 175.5,138C 173.842,137.275 173.342,136.108 174,134.5C 174.414,134.957 174.914,135.291 175.5,135.5C 177.648,133.11 179.648,130.61 181.5,128C 180.504,95.9067 180.171,63.74 180.5,31.5 Z"/></g>
<g><path style="opacity:1" fill="#0a5760" d="M 191.5,27.5 C 193.689,29.2244 194.856,31.5578 195,34.5C 195.667,61.8333 195.667,89.1667 195,116.5C 194.069,86.9177 192.902,57.251 191.5,27.5 Z"/></g>
<g><path style="opacity:1" fill="#d6ecec" d="M 503.5,54.5 C 495.469,50.0203 486.802,48.3536 477.5,49.5C 479.743,48.1883 482.41,47.5217 485.5,47.5C 489.654,47.4913 493.487,48.4913 497,50.5C 497.308,49.6919 497.808,49.0253 498.5,48.5C 500.531,50.3101 502.198,52.3101 503.5,54.5 Z"/></g>
<g><path style="opacity:1" fill="#075a59" d="M 50.5,14.5 C 61.0073,13.1765 71.6739,13.1765 82.5,14.5C 99.9771,50.4505 117.144,86.4505 134,122.5C 134.667,123.833 134.667,125.167 134,126.5C 131.335,131.669 129.168,137.002 127.5,142.5C 123.5,142.5 119.5,142.5 115.5,142.5C 97.4911,102.657 78.9911,62.9908 60,23.5C 58.1667,21 56.3333,18.5 54.5,16C 53.255,15.2086 51.9217,14.7086 50.5,14.5 Z"/></g>
<g><path style="opacity:1" fill="#f9f8eb" d="M 236.5,79.5 C 243.909,87.0034 251.909,87.5034 260.5,81C 264.847,75.0519 265.681,68.5519 263,61.5C 257.834,55.1668 251.334,53.1668 243.5,55.5C 243.5,54.5 243.5,53.5 243.5,52.5C 247.673,53.0436 251.506,52.377 255,50.5C 259.145,54.3145 262.978,58.4812 266.5,63C 266.342,66.7202 266.175,70.5536 266,74.5C 265.619,77.0411 264.786,79.3745 263.5,81.5C 263.608,82.4419 263.941,83.2753 264.5,84C 257.262,85.916 249.929,86.916 242.5,87C 239.681,85.1072 237.681,82.6072 236.5,79.5 Z"/></g>
<g><path style="opacity:1" fill="#ebf4f4" d="M 525.5,139.5 C 526.625,137.871 527.959,136.371 529.5,135C 526.443,134.744 523.443,134.244 520.5,133.5C 519.194,132.088 518.36,130.421 518,128.5C 517.667,110.833 517.333,93.1667 517,75.5C 515.327,68.6736 512.16,62.6736 507.5,57.5C 510.47,56.6916 512.303,54.6916 513,51.5C 514.411,53.6504 515.245,55.9837 515.5,58.5C 514.448,58.3505 513.448,58.5172 512.5,59C 513.931,59.4652 515.097,60.2986 516,61.5C 516.308,60.6919 516.808,60.0253 517.5,59.5C 518.681,61.1353 518.681,62.802 517.5,64.5C 518.498,67.0278 519.331,67.0278 520,64.5C 521.397,67.7347 521.397,71.068 520,74.5C 519.667,74.1667 519.333,73.8333 519,73.5C 518.556,91.8424 518.889,110.176 520,128.5C 521.784,130.066 523.784,131.399 526,132.5C 529.286,129.535 532.12,129.868 534.5,133.5C 532.043,136.235 529.043,138.235 525.5,139.5 Z"/></g>
<g><path style="opacity:1" fill="#065959" d="M 585.5,52.5 C 587.326,77.8138 588.16,103.48 588,129.5C 589.456,135.95 593.289,140.116 599.5,142C 583.5,142.667 567.5,142.667 551.5,142C 557.641,139.859 561.807,135.693 564,129.5C 564.667,112.167 564.667,94.8333 564,77.5C 561.833,71.3333 557.667,67.1667 551.5,65C 563.675,62.7294 575.008,58.5628 585.5,52.5 Z"/></g>
<g><path style="opacity:1" fill="#ccc293" d="M 236.5,79.5 C 230.795,69.0616 233.128,61.0616 243.5,55.5C 251.334,53.1668 257.834,55.1668 263,61.5C 265.681,68.5519 264.847,75.0519 260.5,81C 251.909,87.5034 243.909,87.0034 236.5,79.5 Z"/></g>
<g><path style="opacity:1" fill="#025b56" d="M 287.5,66.5 C 287.792,61.0145 285.792,56.6812 281.5,53.5C 281.821,51.9519 282.821,51.2852 284.5,51.5C 284.5,52.5 284.5,53.5 284.5,54.5C 285.5,54.5 286.5,54.5 287.5,54.5C 288.195,56.9781 289.695,58.9781 292,60.5C 296.441,57.3134 300.274,58.1467 303.5,63C 301.018,63.6771 299.185,62.8437 298,60.5C 296.152,62.9529 293.652,63.9529 290.5,63.5C 290.336,66.1873 290.503,68.854 291,71.5C 291.197,69.1391 292.364,67.4724 294.5,66.5C 295.322,87.5765 295.655,108.577 295.5,129.5C 293.876,129.64 292.71,128.973 292,127.5C 291.888,122.762 291.722,118.096 291.5,113.5C 290.522,113.977 289.689,114.643 289,115.5C 288.831,98.9949 288.331,82.6615 287.5,66.5 Z"/></g>
<g><path style="opacity:1" fill="#ccc38c" d="M 385.5,58.5 C 385.5,57.8333 385.833,57.5 386.5,57.5C 388.394,56.9524 390.06,55.9524 391.5,54.5C 395.459,53.3401 399.459,53.1735 403.5,54C 404.022,54.5613 404.355,55.228 404.5,56C 402.8,58.2309 401.8,60.7309 401.5,63.5C 404.491,63.3297 406.491,64.663 407.5,67.5C 405.926,68.6309 404.259,68.7975 402.5,68C 401.075,66.6381 400.242,65.1381 400,63.5C 398.644,64.3802 397.144,64.7135 395.5,64.5C 395.5,65.5 395.5,66.5 395.5,67.5C 394.167,67.5 392.833,67.5 391.5,67.5C 391.34,65.8008 391.506,64.1341 392,62.5C 394.43,61.0352 396.93,59.7018 399.5,58.5C 398.667,58.1667 397.833,57.8333 397,57.5C 394.178,58.2755 391.344,58.9421 388.5,59.5C 388.41,61.6963 388.077,63.863 387.5,66C 389.118,67.9809 390.451,70.1476 391.5,72.5C 391.286,76.144 390.119,76.4774 388,73.5C 385.128,68.755 384.294,63.755 385.5,58.5 Z"/></g>
<g><path style="opacity:1" fill="#ccc399" d="M 385.5,58.5 C 384.294,63.755 385.128,68.755 388,73.5C 390.119,76.4774 391.286,76.144 391.5,72.5C 390.451,70.1476 389.118,67.9809 387.5,66C 388.077,63.863 388.41,61.6963 388.5,59.5C 391.344,58.9421 394.178,58.2755 397,57.5C 397.833,57.8333 398.667,58.1667 399.5,58.5C 396.93,59.7018 394.43,61.0352 392,62.5C 391.506,64.1341 391.34,65.8008 391.5,67.5C 392.833,67.5 394.167,67.5 395.5,67.5C 395.5,66.5 395.5,65.5 395.5,64.5C 397.144,64.7135 398.644,64.3802 400,63.5C 400.242,65.1381 401.075,66.6381 402.5,68C 404.259,68.7975 405.926,68.6309 407.5,67.5C 406.491,64.663 404.491,63.3297 401.5,63.5C 401.8,60.7309 402.8,58.2309 404.5,56C 404.355,55.228 404.022,54.5613 403.5,54C 399.459,53.1735 395.459,53.3401 391.5,54.5C 390.06,55.9524 388.394,56.9524 386.5,57.5C 387.909,55.5831 389.576,53.7498 391.5,52C 402.86,49.396 409.193,53.7294 410.5,65C 410.557,67.9597 410.057,70.793 409,73.5C 403.28,78.661 396.78,79.8276 389.5,77C 383.491,71.6674 382.157,65.5007 385.5,58.5 Z"/></g>
<g><path style="opacity:1" fill="#ccc294" d="M 451.5,54.5 C 455.582,54.3436 459.582,54.8436 463.5,56C 466.054,58.5541 468.554,61.0541 471,63.5C 473.46,79.376 466.626,86.5427 450.5,85C 442.283,80.0531 439.45,72.8865 442,63.5C 443.871,59.0064 447.038,56.0064 451.5,54.5 Z"/></g>
<g><path style="opacity:1" fill="#075959" d="M 477.5,49.5 C 486.802,48.3536 495.469,50.0203 503.5,54.5C 504.795,55.4884 506.128,56.4884 507.5,57.5C 512.16,62.6736 515.327,68.6736 517,75.5C 517.333,93.1667 517.667,110.833 518,128.5C 518.36,130.421 519.194,132.088 520.5,133.5C 523.443,134.244 526.443,134.744 529.5,135C 527.959,136.371 526.625,137.871 525.5,139.5C 509.801,146.3 499.467,141.633 494.5,125.5C 494.667,103.831 494.5,82.1641 494,60.5C 493.722,59.5842 493.222,58.9175 492.5,58.5C 487.702,52.5478 481.368,49.7145 473.5,50C 474.793,49.51 476.127,49.3433 477.5,49.5 Z"/></g>
<g><path style="opacity:1" fill="#ccc293" d="M 609.5,48.5 C 619.718,46.3954 626.884,50.062 631,59.5C 632.222,67.8891 629.055,74.0557 621.5,78C 602.695,79.5885 596.528,71.4218 603,53.5C 604.965,51.4497 607.132,49.783 609.5,48.5 Z"/></g>
<g><path style="opacity:1" fill="#0a595a" d="M 310.5,77.5 C 310.333,94.8365 310.5,112.17 311,129.5C 311.66,131.324 312.827,132.657 314.5,133.5C 316.969,134.317 319.635,134.817 322.5,135C 312.395,144.79 302.228,144.957 292,135.5C 291,133.833 290,132.167 289,130.5C 287.534,109.233 287.034,87.9 287.5,66.5C 288.331,82.6615 288.831,98.9949 289,115.5C 289.689,114.643 290.522,113.977 291.5,113.5C 291.722,118.096 291.888,122.762 292,127.5C 292.71,128.973 293.876,129.64 295.5,129.5C 295.655,108.577 295.322,87.5765 294.5,66.5C 292.364,67.4724 291.197,69.1391 291,71.5C 290.503,68.854 290.336,66.1873 290.5,63.5C 293.652,63.9529 296.152,62.9529 298,60.5C 299.185,62.8437 301.018,63.6771 303.5,63C 300.274,58.1467 296.441,57.3134 292,60.5C 289.695,58.9781 288.195,56.9781 287.5,54.5C 286.5,54.5 285.5,54.5 284.5,54.5C 284.5,53.5 284.5,52.5 284.5,51.5C 282.821,51.2852 281.821,51.9519 281.5,53.5C 276.597,52.0186 271.597,50.8519 266.5,50C 283.03,46.2786 296.197,51.112 306,64.5C 308.208,68.6263 309.708,72.9596 310.5,77.5 Z"/></g>
<g><path style="opacity:1" fill="#e8fbfa" d="M 310.5,77.5 C 311.222,77.9175 311.722,78.5842 312,79.5C 312.333,96.1667 312.667,112.833 313,129.5C 314.113,130.711 315.28,130.711 316.5,129.5C 317.5,129.833 318.167,130.5 318.5,131.5C 317.051,132.172 315.718,132.839 314.5,133.5C 312.827,132.657 311.66,131.324 311,129.5C 310.5,112.17 310.333,94.8365 310.5,77.5 Z"/></g>
<g><path style="opacity:1" fill="#0a5a5a" d="M 352.5,57.5 C 352.612,61.2877 352.779,65.2877 353,69.5C 354.793,72.2953 356.96,74.7953 359.5,77C 369.847,82.4471 380.514,87.1137 391.5,91C 396.167,94 400.833,97 405.5,100C 418.464,114.449 417.297,127.615 402,139.5C 402.687,135.533 402.521,131.533 401.5,127.5C 400.281,126.737 399.281,125.737 398.5,124.5C 384.299,117.575 370.966,109.408 358.5,100C 347.429,91.7111 343.263,80.8778 346,67.5C 347.431,63.6262 349.597,60.2928 352.5,57.5 Z"/></g>
<g><path style="opacity:1" fill="#d8f9fa" d="M 492.5,58.5 C 493.222,58.9175 493.722,59.5842 494,60.5C 494.5,82.1641 494.667,103.831 494.5,125.5C 493.791,103.314 493.125,80.9803 492.5,58.5 Z"/></g>
<g><path style="opacity:1" fill="#0a5a59" d="M 471.5,88.5 C 473.857,88.3367 476.19,88.5034 478.5,89C 465.131,101.844 462.298,116.678 470,133.5C 472.365,136.869 475.532,139.036 479.5,140C 468.501,143.881 457.835,143.214 447.5,138C 439.58,130.66 437.414,121.826 441,111.5C 444.447,104.386 449.614,98.8864 456.5,95C 461.468,92.4737 466.468,90.307 471.5,88.5 Z"/></g>
<g><path style="opacity:1" fill="#0a5a59" d="M 265.5,88.5 C 267.527,88.3379 269.527,88.5045 271.5,89C 258.133,101.837 255.299,116.67 263,133.5C 265.208,137.024 268.375,139.191 272.5,140C 261.974,143.78 251.64,143.28 241.5,138.5C 233.021,132.186 230.188,123.853 233,113.5C 236.362,105.469 241.862,99.302 249.5,95C 254.607,91.9354 259.94,89.7688 265.5,88.5 Z"/></g>
<g><path style="opacity:1" fill="#5c837f" d="M 347.5,119.5 C 347.175,126.687 347.509,133.687 348.5,140.5C 348.44,141.043 348.107,141.376 347.5,141.5C 347.167,137.167 346.833,132.833 346.5,128.5C 346.03,122.438 346.363,119.438 347.5,119.5 Z"/></g>
<g><path style="opacity:1" fill="#185c5d" d="M 347.5,119.5 C 350.772,127.187 355.439,134.02 361.5,140C 363.5,141 365.5,142 367.5,143C 361.138,142.63 354.805,141.797 348.5,140.5C 347.509,133.687 347.175,126.687 347.5,119.5 Z"/></g>
<g><path style="opacity:1" fill="#185c59" d="M 61.5,125.5 C 63.1206,131.528 66.454,136.695 71.5,141C 73.1667,141.333 74.8333,141.667 76.5,142C 67.8333,142.667 59.1667,142.667 50.5,142C 57.5859,138.753 61.2525,133.253 61.5,125.5 Z"/></g>
</svg>
