<?xml version="1.0" encoding="UTF-8"?>
<!DOCTYPE svg PUBLIC "-//W3C//DTD SVG 1.1//EN" "http://www.w3.org/Graphics/SVG/1.1/DTD/svg11.dtd">
<svg xmlns="http://www.w3.org/2000/svg" version="1.1" width="1045px" height="422px" style="shape-rendering:geometricPrecision; text-rendering:geometricPrecision; image-rendering:optimizeQuality; fill-rule:evenodd; clip-rule:evenodd" xmlns:xlink="http://www.w3.org/1999/xlink">
<g><path style="opacity:1" fill="#fefefe" d="M -0.5,-0.5 C 347.833,-0.5 696.167,-0.5 1044.5,-0.5C 1044.5,140.167 1044.5,280.833 1044.5,421.5C 696.167,421.5 347.833,421.5 -0.5,421.5C -0.5,280.833 -0.5,140.167 -0.5,-0.5 Z"/></g>
<g><path style="opacity:1" fill="#427e7c" d="M 197.5,112.5 C 197.918,113.222 198.584,113.722 199.5,114C 198.207,114.49 196.873,114.657 195.5,114.5C 191.445,114.176 187.445,114.509 183.5,115.5C 184.227,120.161 184.893,124.828 185.5,129.5C 185.737,130.791 185.404,131.791 184.5,132.5C 184.007,130.194 183.674,127.861 183.5,125.5C 182.5,125.5 181.5,125.5 180.5,125.5C 180.5,127.167 180.5,128.833 180.5,130.5C 180.657,131.873 180.49,133.207 180,134.5C 179.814,131.964 179.314,129.631 178.5,127.5C 177.833,123.5 177.167,123.5 176.5,127.5C 175.566,126.432 175.232,125.099 175.5,123.5C 177.415,123.784 179.081,123.451 180.5,122.5C 182.176,121.817 182.843,120.483 182.5,118.5C 179.167,118.5 175.833,118.5 172.5,118.5C 171.391,118.443 170.391,118.11 169.5,117.5C 168.903,116.861 168.07,116.528 167,116.5C 165.624,116.684 164.791,117.351 164.5,118.5C 163.5,118.5 162.5,118.5 161.5,118.5C 160.761,118.631 160.094,118.464 159.5,118C 160.416,117.722 161.082,117.222 161.5,116.5C 164.516,115.941 167.516,115.275 170.5,114.5C 171.647,112.235 171.814,109.902 171,107.5C 169.637,106.107 168.804,104.441 168.5,102.5C 171.194,98.2992 173.694,93.9658 176,89.5C 176.17,83.8042 176.67,78.1376 177.5,72.5C 178.33,78.4725 178.83,84.4725 179,90.5C 179.93,93.3616 181.597,95.695 184,97.5C 184.923,99.0344 185.423,100.701 185.5,102.5C 184.233,105.705 183.566,109.038 183.5,112.5C 188.167,112.5 192.833,112.5 197.5,112.5 Z"/></g>
<g><path style="opacity:1" fill="#ebf3f0" d="M 175.5,93.5 C 178.355,94.8336 180.855,96.8336 183,99.5C 183.808,101.579 183.641,103.579 182.5,105.5C 179.177,106.757 175.844,106.757 172.5,105.5C 170.743,101.787 171.576,98.7866 175,96.5C 175.483,95.552 175.649,94.552 175.5,93.5 Z"/></g>
<g><path style="opacity:1" fill="#9bc1bf" d="M 180.5,116.5 C 180.5,114.167 180.5,111.833 180.5,109.5C 178.5,109.5 176.5,109.5 174.5,109.5C 174.5,111.833 174.5,114.167 174.5,116.5C 173.527,114.052 173.194,111.385 173.5,108.5C 176.167,108.5 178.833,108.5 181.5,108.5C 181.806,111.385 181.473,114.052 180.5,116.5 Z"/></g>
<g><path style="opacity:1" fill="#f4f6f5" d="M 180.5,116.5 C 178.5,116.5 176.5,116.5 174.5,116.5C 174.5,114.167 174.5,111.833 174.5,109.5C 176.5,109.5 178.5,109.5 180.5,109.5C 180.5,111.833 180.5,114.167 180.5,116.5 Z"/></g>
<g><path style="opacity:1" fill="#89c2b9" d="M 169.5,117.5 C 167.883,118.038 166.216,118.371 164.5,118.5C 164.791,117.351 165.624,116.684 167,116.5C 168.07,116.528 168.903,116.861 169.5,117.5 Z"/></g>
<g><path style="opacity:1" fill="#d4e7e5" d="M 172.5,118.5 C 175.833,118.5 179.167,118.5 182.5,118.5C 182.843,120.483 182.176,121.817 180.5,122.5C 177.833,122.5 175.167,122.5 172.5,122.5C 172.5,121.167 172.5,119.833 172.5,118.5 Z"/></g>
<g><path style="opacity:1" fill="#f9fbfb" d="M 195.5,114.5 C 229.237,117.542 255.571,133.209 274.5,161.5C 272.15,163.687 270.15,166.187 268.5,169C 257.201,171.122 255.534,176.456 263.5,185C 270.856,185.169 278.189,185.669 285.5,186.5C 286.785,189.021 287.452,191.687 287.5,194.5C 288.723,206.511 288.723,218.511 287.5,230.5C 285.425,247.151 279.091,261.984 268.5,275C 267.072,275.579 265.738,275.412 264.5,274.5C 263.971,264.299 264.638,254.299 266.5,244.5C 266.351,243.448 266.517,242.448 267,241.5C 275.8,233.368 276.8,224.368 270,214.5C 262.666,208.937 256.166,202.603 250.5,195.5C 250.293,192.759 249.293,190.426 247.5,188.5C 247.5,179.5 247.5,170.5 247.5,161.5C 246.5,161.5 245.5,161.5 244.5,161.5C 244.5,170.5 244.5,179.5 244.5,188.5C 243.225,191.97 241.558,195.303 239.5,198.5C 233.739,204.285 227.739,209.952 221.5,215.5C 218.157,221.932 217.657,228.599 220,235.5C 227.036,242.941 229.869,251.775 228.5,262C 228.167,266.167 227.833,270.333 227.5,274.5C 225.803,275.364 224.637,276.697 224,278.5C 223.832,288.517 223.332,298.517 222.5,308.5C 220.47,309.172 218.47,309.838 216.5,310.5C 214.833,310.5 213.167,310.5 211.5,310.5C 211.5,292.167 211.5,273.833 211.5,255.5C 211.34,253.801 211.506,252.134 212,250.5C 216.483,247.281 216.649,243.948 212.5,240.5C 211.532,238.393 211.198,236.059 211.5,233.5C 208.899,217.721 207.232,202.054 206.5,186.5C 205.5,186.5 204.5,186.5 203.5,186.5C 203.014,183.289 202.014,180.289 200.5,177.5C 195.488,161.434 190.488,145.434 185.5,129.5C 184.893,124.828 184.227,120.161 183.5,115.5C 187.445,114.509 191.445,114.176 195.5,114.5 Z"/></g>
<g><path style="opacity:1" fill="#f1f6f5" d="M 178.5,127.5 C 180.226,145.548 182.059,163.548 184,181.5C 182.309,177.435 180.142,173.769 177.5,170.5C 175.42,172.993 173.586,175.659 172,178.5C 171.809,170.162 172.143,161.829 173,153.5C 174.825,144.95 175.992,136.283 176.5,127.5C 177.167,123.5 177.833,123.5 178.5,127.5 Z"/></g>
<g><path style="opacity:1" fill="#4f8986" d="M 212.5,131.5 C 214.857,131.337 217.19,131.503 219.5,132C 221.026,133.887 223.026,134.887 225.5,135C 229.5,138.333 229.5,141.667 225.5,145C 218.808,145.831 212.142,145.664 205.5,144.5C 203.065,139.046 204.732,135.712 210.5,134.5C 211.193,133.482 211.859,132.482 212.5,131.5 Z"/></g>
<g><path style="opacity:1" fill="#e7f0f0" d="M 214.5,133.5 C 217.927,134.433 221.26,135.6 224.5,137C 225.576,138.726 225.743,140.559 225,142.5C 219.25,143.641 213.416,143.807 207.5,143C 206.446,141.612 206.28,140.112 207,138.5C 210.168,137.678 212.668,136.011 214.5,133.5 Z"/></g>
<g><path style="opacity:1" fill="#e9f1f1" d="M 184.5,132.5 C 189.216,146.528 193.55,160.694 197.5,175C 197.333,175.833 197.167,176.667 197,177.5C 196.264,174.68 194.598,172.68 192,171.5C 190.496,174.509 188.996,177.509 187.5,180.5C 185.255,163.711 182.922,147.045 180.5,130.5C 180.5,128.833 180.5,127.167 180.5,125.5C 181.5,125.5 182.5,125.5 183.5,125.5C 183.674,127.861 184.007,130.194 184.5,132.5 Z"/></g>
<g><path style="opacity:1" fill="#f9fbfb" d="M 169.5,117.5 C 169.75,122.58 169.25,127.58 168,132.5C 163.555,146.938 159.055,161.271 154.5,175.5C 153.671,178.815 152.838,182.148 152,185.5C 151.617,186.056 151.117,186.389 150.5,186.5C 148.833,186.5 147.167,186.5 145.5,186.5C 147.125,192.03 147.791,197.697 147.5,203.5C 145.872,204.853 144.538,204.519 143.5,202.5C 140.495,197.982 137.662,193.316 135,188.5C 134.832,179.482 134.332,170.482 133.5,161.5C 132.502,170.141 132.169,178.808 132.5,187.5C 130.525,190.96 128.691,194.627 127,198.5C 121.635,204.199 115.969,209.533 110,214.5C 103.308,224.242 104.141,233.242 112.5,241.5C 113.432,243.795 114.265,246.129 115,248.5C 115.667,257.167 115.667,265.833 115,274.5C 113.951,275.517 112.784,275.684 111.5,275C 92.7943,250.985 86.2943,223.819 92,193.5C 99.7823,162.061 117.949,138.894 146.5,124C 151.805,122.666 156.805,120.833 161.5,118.5C 162.5,118.5 163.5,118.5 164.5,118.5C 166.216,118.371 167.883,118.038 169.5,117.5 Z"/></g>
<g><path style="opacity:1" fill="#075c56" d="M 436.5,149.5 C 437.398,150.158 438.398,150.824 439.5,151.5C 438.754,152.736 438.421,154.07 438.5,155.5C 447.202,154.496 455.869,154.496 464.5,155.5C 466.111,154.68 466.778,153.346 466.5,151.5C 458.291,151.016 450.291,151.683 442.5,153.5C 442.527,151.801 443.194,150.467 444.5,149.5C 455.172,149.333 465.839,149.5 476.5,150C 471.374,151.293 468.04,154.46 466.5,159.5C 466.167,159.5 465.833,159.5 465.5,159.5C 462.349,158.35 459.016,157.683 455.5,157.5C 449.504,157.966 443.504,158.3 437.5,158.5C 435.561,154.064 432.228,151.231 427.5,150C 430.482,149.502 433.482,149.335 436.5,149.5 Z"/></g>
<g><path style="opacity:1" fill="#09555e" d="M 436.5,149.5 C 439.167,149.5 441.833,149.5 444.5,149.5C 443.194,150.467 442.527,151.801 442.5,153.5C 450.291,151.683 458.291,151.016 466.5,151.5C 466.778,153.346 466.111,154.68 464.5,155.5C 455.869,154.496 447.202,154.496 438.5,155.5C 438.421,154.07 438.754,152.736 439.5,151.5C 438.398,150.824 437.398,150.158 436.5,149.5 Z"/></g>
<g><path style="opacity:1" fill="#f6f9f8" d="M 170.5,151.5 C 170.048,158.831 169.548,166.165 169,173.5C 168.64,175.608 167.973,177.608 167,179.5C 166.617,178.944 166.117,178.611 165.5,178.5C 165.426,175.341 164.093,173.008 161.5,171.5C 163.365,161.373 165.865,151.373 169,141.5C 169.638,142.609 170.138,143.775 170.5,145C 169.307,147.324 169.307,149.49 170.5,151.5 Z"/></g>
<g><path style="opacity:1" fill="#0a5c5c" d="M 465.5,159.5 C 465.333,195.502 465.5,231.502 466,267.5C 466.608,269.066 467.442,270.4 468.5,271.5C 470.397,274.559 473.064,276.726 476.5,278C 459.167,278.667 441.833,278.667 424.5,278C 432.376,277.456 437.209,273.289 439,265.5C 439.667,231.167 439.667,196.833 439,162.5C 438.59,161.099 438.09,159.766 437.5,158.5C 443.504,158.3 449.504,157.966 455.5,157.5C 459.016,157.683 462.349,158.35 465.5,159.5 Z"/></g>
<g><path style="opacity:1" fill="#568f8c" d="M 197.5,112.5 C 226.156,115.653 249.989,127.987 269,149.5C 271.305,153.304 273.805,156.97 276.5,160.5C 279.5,161.333 282.5,162.167 285.5,163C 288.177,166.602 291.844,168.269 296.5,168C 302.564,174.883 301.564,180.55 293.5,185C 291.866,185.494 290.199,185.66 288.5,185.5C 295.719,217.115 290.553,246.449 273,273.5C 271.483,275.24 269.983,276.906 268.5,278.5C 267.947,276.448 266.947,276.115 265.5,277.5C 263.821,277.715 262.821,277.048 262.5,275.5C 263.167,275.5 263.5,275.167 263.5,274.5C 263.833,274.5 264.167,274.5 264.5,274.5C 265.738,275.412 267.072,275.579 268.5,275C 279.091,261.984 285.425,247.151 287.5,230.5C 288.268,229.737 288.768,228.737 289,227.5C 289.167,223.167 289.333,218.833 289.5,214.5C 289.654,207.602 288.987,200.936 287.5,194.5C 287.452,191.687 286.785,189.021 285.5,186.5C 278.189,185.669 270.856,185.169 263.5,185C 255.534,176.456 257.201,171.122 268.5,169C 270.15,166.187 272.15,163.687 274.5,161.5C 255.571,133.209 229.237,117.542 195.5,114.5C 196.873,114.657 198.207,114.49 199.5,114C 198.584,113.722 197.918,113.222 197.5,112.5 Z"/></g>
<g><path style="opacity:1" fill="#dceceb" d="M 170.5,151.5 C 169.307,149.49 169.307,147.324 170.5,145C 170.138,143.775 169.638,142.609 169,141.5C 165.865,151.373 163.365,161.373 161.5,171.5C 160.011,173.805 158.511,176.138 157,178.5C 156.517,177.552 156.351,176.552 156.5,175.5C 161.964,159.043 167.464,142.376 173,125.5C 173.435,134.289 172.602,142.956 170.5,151.5 Z"/></g>
<g><path style="opacity:1" fill="#f6f9f9" d="M 275.5,164.5 C 280.684,163.727 285.017,165.227 288.5,169C 297.923,170.102 299.923,174.435 294.5,182C 284.167,182.667 273.833,182.667 263.5,182C 259.179,174.256 261.512,170.756 270.5,171.5C 270.649,168.026 272.316,165.693 275.5,164.5 Z"/></g>
<g><path style="opacity:1" fill="#548d8c" d="M 169.5,117.5 C 170.391,118.11 171.391,118.443 172.5,118.5C 172.5,119.833 172.5,121.167 172.5,122.5C 175.167,122.5 177.833,122.5 180.5,122.5C 179.081,123.451 177.415,123.784 175.5,123.5C 175.232,125.099 175.566,126.432 176.5,127.5C 175.992,136.283 174.825,144.95 173,153.5C 172.143,161.829 171.809,170.162 172,178.5C 173.586,175.659 175.42,172.993 177.5,170.5C 180.142,173.769 182.309,177.435 184,181.5C 182.059,163.548 180.226,145.548 178.5,127.5C 179.314,129.631 179.814,131.964 180,134.5C 180.49,133.207 180.657,131.873 180.5,130.5C 182.922,147.045 185.255,163.711 187.5,180.5C 188.996,177.509 190.496,174.509 192,171.5C 194.598,172.68 196.264,174.68 197,177.5C 197.167,176.667 197.333,175.833 197.5,175C 193.55,160.694 189.216,146.528 184.5,132.5C 185.404,131.791 185.737,130.791 185.5,129.5C 190.488,145.434 195.488,161.434 200.5,177.5C 199.5,178.5 198.5,179.5 197.5,180.5C 196.068,178.673 194.401,177.006 192.5,175.5C 191.217,177.73 190.217,180.063 189.5,182.5C 189.167,182.5 188.833,182.5 188.5,182.5C 186.585,182.216 184.919,182.549 183.5,183.5C 183.167,183.5 182.833,183.5 182.5,183.5C 181.331,180.489 179.664,177.822 177.5,175.5C 174.745,178.013 172.745,181.013 171.5,184.5C 171.167,184.5 170.833,184.5 170.5,184.5C 170.005,182.518 169.505,180.518 169,178.5C 168.39,183.448 167.224,183.448 165.5,178.5C 166.117,178.611 166.617,178.944 167,179.5C 167.973,177.608 168.64,175.608 169,173.5C 169.548,166.165 170.048,158.831 170.5,151.5C 172.602,142.956 173.435,134.289 173,125.5C 167.464,142.376 161.964,159.043 156.5,175.5C 155.833,175.5 155.167,175.5 154.5,175.5C 159.055,161.271 163.555,146.938 168,132.5C 169.25,127.58 169.75,122.58 169.5,117.5 Z"/></g>
<g><path style="opacity:1" fill="#f7fdf6" d="M 465.5,159.5 C 465.833,159.5 466.167,159.5 466.5,159.5C 468.328,192.485 469.161,225.818 469,259.5C 469.402,260.872 469.902,262.205 470.5,263.5C 469.215,266.021 468.548,268.687 468.5,271.5C 467.442,270.4 466.608,269.066 466,267.5C 465.5,231.502 465.333,195.502 465.5,159.5 Z"/></g>
<g><path style="opacity:1" fill="#4c8585" d="M 143.5,202.5 C 142.167,204.167 142.167,205.833 143.5,207.5C 143.649,208.552 143.483,209.552 143,210.5C 138.015,215.826 133.349,221.493 129,227.5C 128.366,230.555 128.532,233.555 129.5,236.5C 128.833,237.5 128.167,238.5 127.5,239.5C 125.667,233.152 126.334,227.152 129.5,221.5C 133.157,217.673 136.657,213.673 140,209.5C 142.407,205.534 141.74,202.2 138,199.5C 136.767,202.297 135.267,204.963 133.5,207.5C 128.812,211.521 124.479,215.854 120.5,220.5C 120.5,219.833 120.167,219.5 119.5,219.5C 123.763,213.733 128.597,208.399 134,203.5C 134.635,201.382 135.469,199.382 136.5,197.5C 135.533,195.238 134.866,192.905 134.5,190.5C 133.449,189.778 132.782,188.778 132.5,187.5C 132.169,178.808 132.502,170.141 133.5,161.5C 134.332,170.482 134.832,179.482 135,188.5C 137.662,193.316 140.495,197.982 143.5,202.5 Z"/></g>
<g><path style="opacity:1" fill="#035950" d="M 442.5,175.5 C 443.833,188.483 444.499,201.816 444.5,215.5C 444.167,228.833 443.833,242.167 443.5,255.5C 442.5,228.842 442.167,202.175 442.5,175.5 Z"/></g>
<g><path style="opacity:1" fill="#8fb5ba" d="M 247.5,188.5 C 246.67,180.01 246.17,171.343 246,162.5C 245.83,171.343 245.33,180.01 244.5,188.5C 244.5,179.5 244.5,170.5 244.5,161.5C 245.5,161.5 246.5,161.5 247.5,161.5C 247.5,170.5 247.5,179.5 247.5,188.5 Z"/></g>
<g><path style="opacity:1" fill="#ecf3f3" d="M 197.5,180.5 C 197.5,181.167 197.5,181.833 197.5,182.5C 197.414,183.496 197.748,184.329 198.5,185C 195.518,185.498 192.518,185.665 189.5,185.5C 189.5,184.5 189.5,183.5 189.5,182.5C 190.217,180.063 191.217,177.73 192.5,175.5C 194.401,177.006 196.068,178.673 197.5,180.5 Z"/></g>
<g><path style="opacity:1" fill="#f1f3f2" d="M 182.5,183.5 C 181.129,184.787 179.295,185.453 177,185.5C 174.967,185.494 173.134,185.161 171.5,184.5C 172.745,181.013 174.745,178.013 177.5,175.5C 179.664,177.822 181.331,180.489 182.5,183.5 Z"/></g>
<g><path style="opacity:1" fill="#317173" d="M 200.5,177.5 C 202.014,180.289 203.014,183.289 203.5,186.5C 204.5,186.5 205.5,186.5 206.5,186.5C 206.5,187.833 205.833,188.5 204.5,188.5C 198.296,187.23 191.963,187.23 185.5,188.5C 185.082,187.778 184.416,187.278 183.5,187C 184.684,185.855 184.684,184.688 183.5,183.5C 184.919,182.549 186.585,182.216 188.5,182.5C 188.5,183.833 188.5,185.167 188.5,186.5C 192.167,186.5 195.833,186.5 199.5,186.5C 199.771,184.62 199.104,183.287 197.5,182.5C 197.5,181.833 197.5,181.167 197.5,180.5C 198.5,179.5 199.5,178.5 200.5,177.5 Z"/></g>
<g><path style="opacity:1" fill="#9ec2c4" d="M 188.5,182.5 C 188.833,182.5 189.167,182.5 189.5,182.5C 189.5,183.5 189.5,184.5 189.5,185.5C 192.518,185.665 195.518,185.498 198.5,185C 197.748,184.329 197.414,183.496 197.5,182.5C 199.104,183.287 199.771,184.62 199.5,186.5C 195.833,186.5 192.167,186.5 188.5,186.5C 188.5,185.167 188.5,183.833 188.5,182.5 Z"/></g>
<g><path style="opacity:1" fill="#759ea2" d="M 182.5,183.5 C 182.833,183.5 183.167,183.5 183.5,183.5C 184.684,184.688 184.684,185.855 183.5,187C 184.416,187.278 185.082,187.778 185.5,188.5C 180.167,188.5 174.833,188.5 169.5,188.5C 173.312,187.676 177.312,187.176 181.5,187C 177.367,187.094 173.701,186.26 170.5,184.5C 170.833,184.5 171.167,184.5 171.5,184.5C 173.134,185.161 174.967,185.494 177,185.5C 179.295,185.453 181.129,184.787 182.5,183.5 Z"/></g>
<g><path style="opacity:1" fill="#79a8a5" d="M 204.5,188.5 C 199.167,188.5 193.833,188.5 188.5,188.5C 188.5,190.5 188.5,192.5 188.5,194.5C 187.732,193.737 187.232,192.737 187,191.5C 186.51,192.793 186.343,194.127 186.5,195.5C 180.5,195.5 174.5,195.5 168.5,195.5C 168.232,193.901 168.566,192.568 169.5,191.5C 169.5,192.5 169.5,193.5 169.5,194.5C 174.833,194.5 180.167,194.5 185.5,194.5C 185.5,192.5 185.5,190.5 185.5,188.5C 191.963,187.23 198.296,187.23 204.5,188.5 Z"/></g>
<g><path style="opacity:1" fill="#649899" d="M 156.5,183.5 C 156.389,184.117 156.056,184.617 155.5,185C 157.167,185.167 158.833,185.333 160.5,185.5C 162.64,185.444 164.306,184.777 165.5,183.5C 166.048,185.15 166.381,186.817 166.5,188.5C 160.463,188.171 154.463,188.504 148.5,189.5C 149.127,190.417 149.461,191.417 149.5,192.5C 148.833,196.167 148.167,199.833 147.5,203.5C 147.791,197.697 147.125,192.03 145.5,186.5C 147.167,186.5 148.833,186.5 150.5,186.5C 154.991,187.741 156.324,187.741 154.5,186.5C 154.285,184.821 154.952,183.821 156.5,183.5 Z"/></g>
<g><path style="opacity:1" fill="#f5faf9" d="M 169.5,188.5 C 174.833,188.5 180.167,188.5 185.5,188.5C 185.5,190.5 185.5,192.5 185.5,194.5C 180.167,194.5 174.833,194.5 169.5,194.5C 169.5,193.5 169.5,192.5 169.5,191.5C 169.5,190.5 169.5,189.5 169.5,188.5 Z"/></g>
<g><path style="opacity:1" fill="#f6fbfa" d="M 204.5,188.5 C 204.5,190.5 204.5,192.5 204.5,194.5C 199.167,194.5 193.833,194.5 188.5,194.5C 188.5,192.5 188.5,190.5 188.5,188.5C 193.833,188.5 199.167,188.5 204.5,188.5 Z"/></g>
<g><path style="opacity:1" fill="#065a59" d="M 398.5,253.5 C 397.5,253.5 396.5,253.5 395.5,253.5C 394.245,249.381 392.245,245.715 389.5,242.5C 387.821,244.842 386.154,247.176 384.5,249.5C 383.719,248.271 383.219,246.938 383,245.5C 381.622,249.388 380.622,253.388 380,257.5C 378.476,259.271 376.976,260.938 375.5,262.5C 359.331,228.162 343.164,193.829 327,159.5C 324.5,155.667 321.333,152.5 317.5,150C 328.41,149.18 339.243,149.347 350,150.5C 366.197,184.89 382.364,219.224 398.5,253.5 Z"/></g>
<g><path style="opacity:1" fill="#cbc292" d="M 659.5,187.5 C 667.435,186.716 673.268,189.716 677,196.5C 678.514,209.652 672.681,215.486 659.5,214C 647.54,205.201 647.54,196.368 659.5,187.5 Z"/></g>
<g><path style="opacity:1" fill="#055959" d="M 852.5,188.5 C 854.326,214.147 855.16,240.147 855,266.5C 856.859,272.36 860.693,276.193 866.5,278C 850.833,278.667 835.167,278.667 819.5,278C 825.088,275.414 828.921,271.247 831,265.5C 831.667,248.5 831.667,231.5 831,214.5C 829.325,208.159 825.492,203.659 819.5,201C 831.368,198.881 842.368,194.714 852.5,188.5 Z"/></g>
<g><path style="opacity:1" fill="#ccc293" d="M 879.5,183.5 C 892.818,183.649 898.985,190.316 898,203.5C 893.234,214.301 885.401,217.467 874.5,213C 867.017,206.397 865.517,198.564 870,189.5C 872.843,186.837 876.009,184.837 879.5,183.5 Z"/></g>
<g><path style="opacity:1" fill="#f8f9fa" d="M 166.5,188.5 C 166.5,190.5 166.5,192.5 166.5,194.5C 160.402,195.117 154.735,194.45 149.5,192.5C 149.461,191.417 149.127,190.417 148.5,189.5C 154.463,188.504 160.463,188.171 166.5,188.5 Z"/></g>
<g><path style="opacity:1" fill="#226769" d="M 247.5,188.5 C 249.293,190.426 250.293,192.759 250.5,195.5C 251.103,198.041 251.103,200.374 250.5,202.5C 250.5,202.167 250.5,201.833 250.5,201.5C 249.713,199.896 248.38,199.229 246.5,199.5C 246.649,198.448 246.483,197.448 246,196.5C 244.373,197.532 243.207,198.866 242.5,200.5C 242.34,202.153 241.674,203.486 240.5,204.5C 240.167,202.5 239.833,200.5 239.5,198.5C 241.558,195.303 243.225,191.97 244.5,188.5C 245.33,180.01 245.83,171.343 246,162.5C 246.17,171.343 246.67,180.01 247.5,188.5 Z"/></g>
<g><path style="opacity:1" fill="#bdd9da" d="M 158.5,197.5 C 161.167,197.5 163.833,197.5 166.5,197.5C 166.81,200.713 166.477,203.713 165.5,206.5C 165.5,203.833 165.5,201.167 165.5,198.5C 160.833,198.5 156.167,198.5 151.5,198.5C 150.583,201.005 150.583,203.338 151.5,205.5C 151.44,206.043 151.107,206.376 150.5,206.5C 149.516,203.572 149.183,200.572 149.5,197.5C 152.5,197.5 155.5,197.5 158.5,197.5 Z"/></g>
<g><path style="opacity:1" fill="#ccc294" d="M 511.5,190.5 C 522.179,189.045 529.012,193.379 532,203.5C 531.635,216.863 524.802,222.696 511.5,221C 502.6,217.035 499.1,210.202 501,200.5C 503.762,196.234 507.262,192.901 511.5,190.5 Z"/></g>
<g><path style="opacity:1" fill="#f0f6f4" d="M 204.5,197.5 C 204.5,200.167 204.5,202.833 204.5,205.5C 198.99,205.17 193.657,205.836 188.5,207.5C 188.5,204.167 188.5,200.833 188.5,197.5C 193.833,197.5 199.167,197.5 204.5,197.5 Z"/></g>
<g><path style="opacity:1" fill="#f3f7f7" d="M 165.5,206.5 C 165.44,207.043 165.107,207.376 164.5,207.5C 162.827,205.914 160.827,205.247 158.5,205.5C 156.167,205.5 153.833,205.5 151.5,205.5C 150.583,203.338 150.583,201.005 151.5,198.5C 156.167,198.5 160.833,198.5 165.5,198.5C 165.5,201.167 165.5,203.833 165.5,206.5 Z"/></g>
<g><path style="opacity:1" fill="#458182" d="M 161.5,171.5 C 164.093,173.008 165.426,175.341 165.5,178.5C 167.224,183.448 168.39,183.448 169,178.5C 169.505,180.518 170.005,182.518 170.5,184.5C 173.701,186.26 177.367,187.094 181.5,187C 177.312,187.176 173.312,187.676 169.5,188.5C 169.5,189.5 169.5,190.5 169.5,191.5C 168.566,192.568 168.232,193.901 168.5,195.5C 174.5,195.5 180.5,195.5 186.5,195.5C 186.343,194.127 186.51,192.793 187,191.5C 187.232,192.737 187.732,193.737 188.5,194.5C 194.014,195.167 199.681,195.833 205.5,196.5C 205.376,197.107 205.043,197.44 204.5,197.5C 199.167,197.5 193.833,197.5 188.5,197.5C 188.5,200.833 188.5,204.167 188.5,207.5C 188.833,208.167 189.167,208.833 189.5,209.5C 188.521,212.625 188.187,215.958 188.5,219.5C 189.791,219.263 190.791,219.596 191.5,220.5C 190.363,221.789 189.03,222.789 187.5,223.5C 187.244,221.224 185.91,220.057 183.5,220C 179.167,219.333 174.833,219.333 170.5,220C 169.584,220.374 168.75,220.874 168,221.5C 167.503,224.146 167.336,226.813 167.5,229.5C 168.11,230.391 168.443,231.391 168.5,232.5C 168.167,232.5 167.833,232.5 167.5,232.5C 166.532,234.607 166.198,236.941 166.5,239.5C 173.833,239.5 181.167,239.5 188.5,239.5C 188.662,237.473 188.495,235.473 188,233.5C 187.617,232.944 187.117,232.611 186.5,232.5C 188.167,229.833 189.833,229.833 191.5,232.5C 190.883,232.611 190.383,232.944 190,233.5C 189.505,235.473 189.338,237.473 189.5,239.5C 195.5,239.5 201.5,239.5 207.5,239.5C 208.167,239.5 208.833,239.5 209.5,239.5C 210.167,237.5 210.833,235.5 211.5,233.5C 211.198,236.059 211.532,238.393 212.5,240.5C 212.5,241.167 212.167,241.5 211.5,241.5C 192.497,241.333 173.497,241.5 154.5,242C 153.748,242.671 153.414,243.504 153.5,244.5C 152.767,242.706 151.767,241.039 150.5,239.5C 155.365,238.609 158.199,235.609 159,230.5C 159.817,226.214 159.15,222.214 157,218.5C 156.654,224.05 154.487,228.717 150.5,232.5C 149.054,234.618 148.387,236.951 148.5,239.5C 147.833,239.5 147.167,239.5 146.5,239.5C 146.338,237.473 146.505,235.473 147,233.5C 152.225,229.05 154.725,223.383 154.5,216.5C 155.391,215.89 156.391,215.557 157.5,215.5C 159.54,216.942 161.873,217.942 164.5,218.5C 167.416,211.425 165.083,207.758 157.5,207.5C 157.833,206.833 158.167,206.167 158.5,205.5C 160.827,205.247 162.827,205.914 164.5,207.5C 165.107,207.376 165.44,207.043 165.5,206.5C 166.477,203.713 166.81,200.713 166.5,197.5C 163.833,197.5 161.167,197.5 158.5,197.5C 160.857,195.902 163.523,194.902 166.5,194.5C 166.5,192.5 166.5,190.5 166.5,188.5C 166.381,186.817 166.048,185.15 165.5,183.5C 163.781,181.089 162.448,178.423 161.5,175.5C 159.311,177.887 157.644,180.553 156.5,183.5C 154.952,183.821 154.285,184.821 154.5,186.5C 156.324,187.741 154.991,187.741 150.5,186.5C 151.117,186.389 151.617,186.056 152,185.5C 152.838,182.148 153.671,178.815 154.5,175.5C 155.167,175.5 155.833,175.5 156.5,175.5C 156.351,176.552 156.517,177.552 157,178.5C 158.511,176.138 160.011,173.805 161.5,171.5 Z"/></g>
<g><path style="opacity:1" fill="#eaf4f2" d="M 168.5,197.5 C 174.5,197.5 180.5,197.5 186.5,197.5C 186.82,200.898 186.487,204.232 185.5,207.5C 180.366,205.234 175.033,204.901 169.5,206.5C 168.516,203.572 168.183,200.572 168.5,197.5 Z"/></g>
<g><path style="opacity:1" fill="#eef1f2" d="M 165.5,183.5 C 164.306,184.777 162.64,185.444 160.5,185.5C 158.833,185.333 157.167,185.167 155.5,185C 156.056,184.617 156.389,184.117 156.5,183.5C 157.644,180.553 159.311,177.887 161.5,175.5C 162.448,178.423 163.781,181.089 165.5,183.5 Z"/></g>
<g><path style="opacity:1" fill="#065a5a" d="M 533.5,186.5 C 549.704,182.513 562.871,187.18 573,200.5C 574.917,203.915 576.25,207.581 577,211.5C 577.333,229.5 577.667,247.5 578,265.5C 580.45,269.905 584.283,271.738 589.5,271C 578.767,281.065 568.267,280.898 558,270.5C 557,268.5 556,266.5 555,264.5C 554.667,242.167 554.333,219.833 554,197.5C 552.939,194.438 551.106,191.938 548.5,190C 543.634,188.148 538.634,186.981 533.5,186.5 Z"/></g>
<g><path style="opacity:1" fill="#065a59" d="M 762.5,263.5 C 762.369,262.761 762.536,262.094 763,261.5C 764.011,262.337 765.178,262.67 766.5,262.5C 766.336,265.187 766.503,267.854 767,270.5C 768.02,265.176 767.187,260.176 764.5,255.5C 763.667,239.51 763.167,223.51 763,207.5C 762.79,205.942 762.29,204.609 761.5,203.5C 762.366,197.731 760.366,193.231 755.5,190C 750.599,188.263 745.599,186.93 740.5,186C 756.886,182.568 770.053,187.402 780,200.5C 781.725,203.674 783.058,207.007 784,210.5C 784.333,228.5 784.667,246.5 785,264.5C 786.906,270.201 790.74,272.367 796.5,271C 786.443,280.584 776.276,280.75 766,271.5C 764.007,269.182 762.841,266.516 762.5,263.5 Z"/></g>
<g><path style="opacity:1" fill="#eaf1f2" d="M 172.5,207.5 C 177.449,206.959 182.116,207.792 186.5,210C 187.787,213.125 187.787,216.291 186.5,219.5C 180.699,215.987 174.699,215.654 168.5,218.5C 166.946,213.684 168.279,210.018 172.5,207.5 Z"/></g>
<g><path style="opacity:1" fill="#c5e4e5" d="M 287.5,194.5 C 288.987,200.936 289.654,207.602 289.5,214.5C 289.333,218.833 289.167,223.167 289,227.5C 288.768,228.737 288.268,229.737 287.5,230.5C 288.723,218.511 288.723,206.511 287.5,194.5 Z"/></g>
<g><path style="opacity:1" fill="#ccc294" d="M 719.5,190.5 C 735.88,190.722 741.713,198.722 737,214.5C 730.69,221.811 723.19,223.311 714.5,219C 708.36,212.946 706.86,205.78 710,197.5C 712.825,194.524 715.992,192.191 719.5,190.5 Z"/></g>
<g><path style="opacity:1" fill="#8bbcb4" d="M 89.5,196.5 C 88.2496,208.503 88.2496,220.503 89.5,232.5C 86.8333,220.5 86.8333,208.5 89.5,196.5 Z"/></g>
<g><path style="opacity:1" fill="#eef4f4" d="M 157.5,207.5 C 165.083,207.758 167.416,211.425 164.5,218.5C 161.873,217.942 159.54,216.942 157.5,215.5C 155.706,213.203 153.706,211.037 151.5,209C 153.25,207.681 155.25,207.181 157.5,207.5 Z"/></g>
<g><path style="opacity:1" fill="#5c9391" d="M 206.5,186.5 C 207.232,202.054 208.899,217.721 211.5,233.5C 210.833,235.5 210.167,237.5 209.5,239.5C 210.076,232.427 206.743,229.427 199.5,230.5C 196.591,230.385 193.925,231.051 191.5,232.5C 189.833,229.833 188.167,229.833 186.5,232.5C 180.484,229.904 174.484,229.904 168.5,232.5C 168.443,231.391 168.11,230.391 167.5,229.5C 174.167,228.167 180.833,228.167 187.5,229.5C 187.5,227.5 187.5,225.5 187.5,223.5C 189.03,222.789 190.363,221.789 191.5,220.5C 190.791,219.596 189.791,219.263 188.5,219.5C 188.187,215.958 188.521,212.625 189.5,209.5C 189.167,208.833 188.833,208.167 188.5,207.5C 193.657,205.836 198.99,205.17 204.5,205.5C 204.5,202.833 204.5,200.167 204.5,197.5C 205.043,197.44 205.376,197.107 205.5,196.5C 199.681,195.833 194.014,195.167 188.5,194.5C 193.833,194.5 199.167,194.5 204.5,194.5C 204.5,192.5 204.5,190.5 204.5,188.5C 205.833,188.5 206.5,187.833 206.5,186.5 Z"/></g>
<g><path style="opacity:1" fill="#f0f6f6" d="M 189.5,209.5 C 195.216,206.675 200.716,207.009 206,210.5C 206.497,212.81 206.663,215.143 206.5,217.5C 201.032,215.851 195.699,216.184 190.5,218.5C 189.516,215.572 189.183,212.572 189.5,209.5 Z"/></g>
<g><path style="opacity:1" fill="#f0f4f6" d="M 134.5,190.5 C 134.866,192.905 135.533,195.238 136.5,197.5C 135.469,199.382 134.635,201.382 134,203.5C 128.597,208.399 123.763,213.733 119.5,219.5C 118.5,219.833 117.833,220.5 117.5,221.5C 115.967,223.634 115.3,226.134 115.5,229C 115.506,231.033 115.839,232.866 116.5,234.5C 117.339,235.641 118.006,236.974 118.5,238.5C 115.718,239.952 113.218,239.619 111,237.5C 106.518,230.419 106.518,223.419 111,216.5C 115.407,211.681 120.24,207.348 125.5,203.5C 128.298,198.86 131.298,194.526 134.5,190.5 Z"/></g>
<g><path style="opacity:1" fill="#eff4f5" d="M 187.5,223.5 C 187.5,225.5 187.5,227.5 187.5,229.5C 180.833,228.167 174.167,228.167 167.5,229.5C 167.336,226.813 167.503,224.146 168,221.5C 168.75,220.874 169.584,220.374 170.5,220C 174.833,219.333 179.167,219.333 183.5,220C 185.91,220.057 187.244,221.224 187.5,223.5 Z"/></g>
<g><path style="opacity:1" fill="#f1f6f6" d="M 191.5,220.5 C 196.673,218.904 201.673,219.237 206.5,221.5C 207.833,224.167 207.833,226.833 206.5,229.5C 201.181,228.275 195.848,228.275 190.5,229.5C 190.368,226.43 190.701,223.43 191.5,220.5 Z"/></g>
<g><path style="opacity:1" fill="#d0dede" d="M 160.5,219.5 C 165.102,221.605 166.769,225.272 165.5,230.5C 164.178,230.67 163.011,230.337 162,229.5C 161.661,226.12 161.161,222.787 160.5,219.5 Z"/></g>
<g><path style="opacity:1" fill="#07575a" d="M 629.5,238.5 C 623.833,234.833 619.167,230.167 615.5,224.5C 616.043,223.258 616.377,221.925 616.5,220.5C 614.815,217.389 614.315,214.056 615,210.5C 615.667,209.167 616.333,209.167 617,210.5C 617.249,209.376 617.749,208.376 618.5,207.5C 619.769,209.695 619.769,211.861 618.5,214C 623.298,216.348 623.631,219.181 619.5,222.5C 623.631,225.463 627.298,228.963 630.5,233C 631.793,233.49 633.127,233.657 634.5,233.5C 634.649,232.448 634.483,231.448 634,230.5C 631.356,228.69 628.856,226.69 626.5,224.5C 634.5,223.167 634.5,221.833 626.5,220.5C 625.754,219.264 625.421,217.93 625.5,216.5C 628.961,215.889 631.628,217.056 633.5,220C 636.376,220.438 639.043,221.438 641.5,223C 640.692,223.308 640.025,223.808 639.5,224.5C 643.171,224.765 646.171,226.265 648.5,229C 650.895,229.681 653.228,230.515 655.5,231.5C 646.706,233.432 638.039,235.766 629.5,238.5 Z"/></g>
<g><path style="opacity:1" fill="#0b5c5a" d="M 629.5,238.5 C 638.039,235.766 646.706,233.432 655.5,231.5C 653.228,230.515 650.895,229.681 648.5,229C 646.171,226.265 643.171,224.765 639.5,224.5C 640.025,223.808 640.692,223.308 641.5,223C 639.043,221.438 636.376,220.438 633.5,220C 631.628,217.056 628.961,215.889 625.5,216.5C 625.421,217.93 625.754,219.264 626.5,220.5C 634.5,221.833 634.5,223.167 626.5,224.5C 628.856,226.69 631.356,228.69 634,230.5C 634.483,231.448 634.649,232.448 634.5,233.5C 633.127,233.657 631.793,233.49 630.5,233C 627.298,228.963 623.631,225.463 619.5,222.5C 623.631,219.181 623.298,216.348 618.5,214C 619.769,211.861 619.769,209.695 618.5,207.5C 617.749,208.376 617.249,209.376 617,210.5C 616.333,209.167 615.667,209.167 615,210.5C 614.315,214.056 614.815,217.389 616.5,220.5C 616.377,221.925 616.043,223.258 615.5,224.5C 608.93,213.016 610.43,202.683 620,193.5C 617.915,200.864 619.748,207.03 625.5,212C 641.112,219.139 656.445,226.806 671.5,235C 685.472,249.438 684.639,262.938 669,275.5C 671.096,268.673 669.263,263.173 663.5,259C 651.605,252.895 640.272,246.062 629.5,238.5 Z"/></g>
<g><path style="opacity:1" fill="#f3f7f7" d="M 209.5,239.5 C 208.833,239.5 208.167,239.5 207.5,239.5C 202.319,238.833 196.985,238.167 191.5,237.5C 190.465,235.872 190.465,234.205 191.5,232.5C 193.925,231.051 196.591,230.385 199.5,230.5C 206.743,229.427 210.076,232.427 209.5,239.5 Z"/></g>
<g><path style="opacity:1" fill="#eef3f2" d="M 154.5,216.5 C 154.725,223.383 152.225,229.05 147,233.5C 146.505,235.473 146.338,237.473 146.5,239.5C 143.833,239.5 141.167,239.5 138.5,239.5C 138.336,236.813 138.503,234.146 139,231.5C 143.608,225.285 147.441,218.619 150.5,211.5C 152.552,212.611 153.886,214.277 154.5,216.5 Z"/></g>
<g><path style="opacity:1" fill="#edf4f2" d="M 150.5,239.5 C 149.833,239.5 149.167,239.5 148.5,239.5C 148.387,236.951 149.054,234.618 150.5,232.5C 154.487,228.717 156.654,224.05 157,218.5C 159.15,222.214 159.817,226.214 159,230.5C 158.199,235.609 155.365,238.609 150.5,239.5 Z"/></g>
<g><path style="opacity:1" fill="#498783" d="M 250.5,195.5 C 256.166,202.603 262.666,208.937 270,214.5C 276.8,224.368 275.8,233.368 267,241.5C 266.517,242.448 266.351,243.448 266.5,244.5C 263.946,247.59 262.946,251.256 263.5,255.5C 262.833,255.5 262.167,255.5 261.5,255.5C 261.5,254.167 261.5,252.833 261.5,251.5C 259.167,251.5 256.833,251.5 254.5,251.5C 254.5,256.833 254.5,262.167 254.5,267.5C 258.113,267.78 260.113,269.78 260.5,273.5C 261.298,273.043 261.631,272.376 261.5,271.5C 262.167,271.5 262.833,271.5 263.5,271.5C 263.5,272.5 263.5,273.5 263.5,274.5C 263.5,275.167 263.167,275.5 262.5,275.5C 257.049,275.534 254.382,278.2 254.5,283.5C 260.05,284.565 263.717,282.565 265.5,277.5C 266.947,276.115 267.947,276.448 268.5,278.5C 256.308,294.143 240.641,304.81 221.5,310.5C 219.666,311.494 217.999,311.494 216.5,310.5C 218.47,309.838 220.47,309.172 222.5,308.5C 223.332,298.517 223.832,288.517 224,278.5C 224.637,276.697 225.803,275.364 227.5,274.5C 227.833,270.333 228.167,266.167 228.5,262C 229.869,251.775 227.036,242.941 220,235.5C 217.657,228.599 218.157,221.932 221.5,215.5C 227.739,209.952 233.739,204.285 239.5,198.5C 239.833,200.5 240.167,202.5 240.5,204.5C 237.406,208.926 234.739,213.593 232.5,218.5C 230.982,222.566 230.149,226.899 230,231.5C 229.352,226.796 229.519,222.129 230.5,217.5C 233.263,212.292 236.096,207.292 239,202.5C 232.36,207.806 226.36,213.806 221,220.5C 219.636,227.049 220.802,233.049 224.5,238.5C 226.833,239.833 229.167,239.833 231.5,238.5C 230.754,237.264 230.421,235.93 230.5,234.5C 230.328,233.508 230.662,232.842 231.5,232.5C 232.588,234.583 233.588,236.749 234.5,239C 236.473,239.495 238.473,239.662 240.5,239.5C 238.417,227.039 239.417,214.872 243.5,203C 243.472,201.93 243.139,201.097 242.5,200.5C 243.207,198.866 244.373,197.532 246,196.5C 246.483,197.448 246.649,198.448 246.5,199.5C 248.38,199.229 249.713,199.896 250.5,201.5C 249.876,201.917 249.543,202.584 249.5,203.5C 250.14,208.376 251.14,213.042 252.5,217.5C 252.163,225.024 252.163,232.357 252.5,239.5C 259.925,238.887 262.925,234.72 261.5,227C 261.333,224.5 261.167,222 261,219.5C 257.489,213.805 253.989,208.139 250.5,202.5C 251.103,200.374 251.103,198.041 250.5,195.5 Z"/></g>
<g><path style="opacity:1" fill="#f1f8f7" d="M 245.5,201.5 C 247.179,205.647 248.679,209.98 250,214.5C 250.5,222.827 250.666,231.16 250.5,239.5C 247.833,239.5 245.167,239.5 242.5,239.5C 242.334,230.494 242.5,221.494 243,212.5C 243.852,208.811 244.685,205.144 245.5,201.5 Z"/></g>
<g><path style="opacity:1" fill="#edf5f3" d="M 250.5,201.5 C 250.5,201.833 250.5,202.167 250.5,202.5C 253.989,208.139 257.489,213.805 261,219.5C 261.167,222 261.333,224.5 261.5,227C 262.925,234.72 259.925,238.887 252.5,239.5C 253.603,232.009 253.603,224.676 252.5,217.5C 251.14,213.042 250.14,208.376 249.5,203.5C 249.543,202.584 249.876,201.917 250.5,201.5 Z"/></g>
<g><path style="opacity:1" fill="#97bebd" d="M 252.5,217.5 C 253.603,224.676 253.603,232.009 252.5,239.5C 252.163,232.357 252.163,225.024 252.5,217.5 Z"/></g>
<g><path style="opacity:1" fill="#eef5f4" d="M 254.5,204.5 C 258.272,207.094 261.939,209.927 265.5,213C 271.674,219.399 273.174,226.899 270,235.5C 268.067,238.649 265.234,239.982 261.5,239.5C 264.328,231.11 264.162,222.777 261,214.5C 258.563,211.28 256.397,207.947 254.5,204.5 Z"/></g>
<g><path style="opacity:1" fill="#eef4f3" d="M 230.5,217.5 C 229.778,217.918 229.278,218.584 229,219.5C 228.333,223.833 228.333,228.167 229,232.5C 229.278,233.416 229.778,234.082 230.5,234.5C 230.421,235.93 230.754,237.264 231.5,238.5C 229.167,239.833 226.833,239.833 224.5,238.5C 220.802,233.049 219.636,227.049 221,220.5C 226.36,213.806 232.36,207.806 239,202.5C 236.096,207.292 233.263,212.292 230.5,217.5 Z"/></g>
<g><path style="opacity:1" fill="#88b1b3" d="M 230.5,217.5 C 229.519,222.129 229.352,226.796 230,231.5C 230.149,226.899 230.982,222.566 232.5,218.5C 231.873,223.141 231.54,227.807 231.5,232.5C 230.662,232.842 230.328,233.508 230.5,234.5C 229.778,234.082 229.278,233.416 229,232.5C 228.333,228.167 228.333,223.833 229,219.5C 229.278,218.584 229.778,217.918 230.5,217.5 Z"/></g>
<g><path style="opacity:1" fill="#f3f6f5" d="M 242.5,200.5 C 243.139,201.097 243.472,201.93 243.5,203C 239.417,214.872 238.417,227.039 240.5,239.5C 238.473,239.662 236.473,239.495 234.5,239C 233.588,236.749 232.588,234.583 231.5,232.5C 231.54,227.807 231.873,223.141 232.5,218.5C 234.739,213.593 237.406,208.926 240.5,204.5C 241.674,203.486 242.34,202.153 242.5,200.5 Z"/></g>
<g><path style="opacity:1" fill="#e0ebe9" d="M 160.5,231.5 C 161.583,231.539 162.583,231.873 163.5,232.5C 164.474,234.743 164.808,237.076 164.5,239.5C 162.076,239.808 159.743,239.474 157.5,238.5C 159.854,236.754 160.854,234.421 160.5,231.5 Z"/></g>
<g><path style="opacity:1" fill="#f7fbf8" d="M 186.5,232.5 C 186.5,234.5 186.5,236.5 186.5,238.5C 180.167,238.5 173.833,238.5 167.5,238.5C 167.5,236.5 167.5,234.5 167.5,232.5C 167.833,232.5 168.167,232.5 168.5,232.5C 174.484,229.904 180.484,229.904 186.5,232.5 Z"/></g>
<g><path style="opacity:1" fill="#c1d1d6" d="M 167.5,232.5 C 167.5,234.5 167.5,236.5 167.5,238.5C 173.833,238.5 180.167,238.5 186.5,238.5C 186.5,236.5 186.5,234.5 186.5,232.5C 187.117,232.611 187.617,232.944 188,233.5C 188.495,235.473 188.662,237.473 188.5,239.5C 181.167,239.5 173.833,239.5 166.5,239.5C 166.198,236.941 166.532,234.607 167.5,232.5 Z"/></g>
<g><path style="opacity:1" fill="#b8d5cb" d="M 191.5,232.5 C 190.465,234.205 190.465,235.872 191.5,237.5C 196.985,238.167 202.319,238.833 207.5,239.5C 201.5,239.5 195.5,239.5 189.5,239.5C 189.338,237.473 189.505,235.473 190,233.5C 190.383,232.944 190.883,232.611 191.5,232.5 Z"/></g>
<g><path style="opacity:1" fill="#a9c6c4" d="M 263.5,244.5 C 258.04,243.171 252.207,242.504 246,242.5C 239.99,242.501 234.157,242.834 228.5,243.5C 227.957,243.44 227.624,243.107 227.5,242.5C 239.815,241.501 252.149,241.168 264.5,241.5C 264.737,242.791 264.404,243.791 263.5,244.5 Z"/></g>
<g><path style="opacity:1" fill="#095a5a" d="M 739.5,224.5 C 741.527,224.338 743.527,224.505 745.5,225C 732.235,237.885 729.402,252.718 737,269.5C 739.365,272.869 742.532,275.036 746.5,276C 735.521,279.882 724.855,279.216 714.5,274C 707.147,267.446 704.647,259.279 707,249.5C 710.389,241.445 715.889,235.278 723.5,231C 728.819,228.497 734.152,226.331 739.5,224.5 Z"/></g>
<g><path style="opacity:1" fill="#eef4f4" d="M 263.5,244.5 C 262.699,246.042 262.366,247.708 262.5,249.5C 251.813,249.832 241.146,249.499 230.5,248.5C 229.544,246.925 228.877,245.258 228.5,243.5C 234.157,242.834 239.99,242.501 246,242.5C 252.207,242.504 258.04,243.171 263.5,244.5 Z"/></g>
<g><path style="opacity:1" fill="#09555b" d="M 398.5,253.5 C 398.5,253.833 398.5,254.167 398.5,254.5C 397.744,256.763 397.577,259.097 398,261.5C 395.602,261.958 393.936,263.292 393,265.5C 392.502,268.482 392.335,271.482 392.5,274.5C 391.167,274.5 389.833,274.5 388.5,274.5C 391.205,268.207 390.872,262.04 387.5,256C 388.448,255.517 389.448,255.351 390.5,255.5C 390.286,257.144 390.62,258.644 391.5,260C 393.473,260.538 394.473,259.704 394.5,257.5C 392.649,253.797 390.815,250.13 389,246.5C 387.234,248.881 386.068,251.548 385.5,254.5C 384.311,255.429 382.978,255.762 381.5,255.5C 379.912,259.35 380.245,263.016 382.5,266.5C 381.813,268.177 381.146,269.844 380.5,271.5C 378.595,268.696 376.929,265.696 375.5,262.5C 376.976,260.938 378.476,259.271 380,257.5C 380.622,253.388 381.622,249.388 383,245.5C 383.219,246.938 383.719,248.271 384.5,249.5C 386.154,247.176 387.821,244.842 389.5,242.5C 392.245,245.715 394.245,249.381 395.5,253.5C 396.5,253.5 397.5,253.5 398.5,253.5 Z"/></g>
<g><path style="opacity:1" fill="#4e8b85" d="M 161.5,116.5 C 161.082,117.222 160.416,117.722 159.5,118C 160.094,118.464 160.761,118.631 161.5,118.5C 156.805,120.833 151.805,122.666 146.5,124C 117.949,138.894 99.7823,162.061 92,193.5C 86.2943,223.819 92.7943,250.985 111.5,275C 112.784,275.684 113.951,275.517 115,274.5C 115.667,265.833 115.667,257.167 115,248.5C 114.265,246.129 113.432,243.795 112.5,241.5C 104.141,233.242 103.308,224.242 110,214.5C 115.969,209.533 121.635,204.199 127,198.5C 128.691,194.627 130.525,190.96 132.5,187.5C 132.782,188.778 133.449,189.778 134.5,190.5C 131.298,194.526 128.298,198.86 125.5,203.5C 120.24,207.348 115.407,211.681 111,216.5C 106.518,223.419 106.518,230.419 111,237.5C 113.218,239.619 115.718,239.952 118.5,238.5C 118.006,236.974 117.339,235.641 116.5,234.5C 116.467,230.131 116.8,225.798 117.5,221.5C 117.833,220.5 118.5,219.833 119.5,219.5C 120.167,219.5 120.5,219.833 120.5,220.5C 116.207,226.747 116.54,232.747 121.5,238.5C 123.396,239.466 125.396,239.799 127.5,239.5C 128.167,238.5 128.833,237.5 129.5,236.5C 129.414,237.496 129.748,238.329 130.5,239C 132.473,239.495 134.473,239.662 136.5,239.5C 136.263,235.727 136.763,232.06 138,228.5C 141.265,223.633 144.265,218.633 147,213.5C 148.09,210.421 147.257,208.088 144.5,206.5C 143.893,206.624 143.56,206.957 143.5,207.5C 142.167,205.833 142.167,204.167 143.5,202.5C 144.538,204.519 145.872,204.853 147.5,203.5C 148.167,199.833 148.833,196.167 149.5,192.5C 154.735,194.45 160.402,195.117 166.5,194.5C 163.523,194.902 160.857,195.902 158.5,197.5C 155.5,197.5 152.5,197.5 149.5,197.5C 149.183,200.572 149.516,203.572 150.5,206.5C 151.107,206.376 151.44,206.043 151.5,205.5C 153.833,205.5 156.167,205.5 158.5,205.5C 158.167,206.167 157.833,206.833 157.5,207.5C 155.25,207.181 153.25,207.681 151.5,209C 153.706,211.037 155.706,213.203 157.5,215.5C 156.391,215.557 155.391,215.89 154.5,216.5C 153.886,214.277 152.552,212.611 150.5,211.5C 147.441,218.619 143.608,225.285 139,231.5C 138.503,234.146 138.336,236.813 138.5,239.5C 141.167,239.5 143.833,239.5 146.5,239.5C 147.167,239.5 147.833,239.5 148.5,239.5C 149.167,239.5 149.833,239.5 150.5,239.5C 151.767,241.039 152.767,242.706 153.5,244.5C 152.699,246.042 152.366,247.708 152.5,249.5C 172.178,249.833 191.845,249.5 211.5,248.5C 212.672,246.177 212.672,243.844 211.5,241.5C 212.167,241.5 212.5,241.167 212.5,240.5C 216.649,243.948 216.483,247.281 212,250.5C 211.506,252.134 211.34,253.801 211.5,255.5C 211.167,255.5 210.833,255.5 210.5,255.5C 209.833,270.167 209.167,284.833 208.5,299.5C 208.5,283.5 208.5,267.5 208.5,251.5C 202.833,251.5 197.167,251.5 191.5,251.5C 190.5,252.833 189.5,252.833 188.5,251.5C 181.833,251.5 175.167,251.5 168.5,251.5C 166.515,267.132 165.849,283.132 166.5,299.5C 165.847,282.93 165.181,266.93 164.5,251.5C 160.167,251.5 155.833,251.5 151.5,251.5C 151.715,249.821 151.048,248.821 149.5,248.5C 149.604,246.297 150.27,244.297 151.5,242.5C 139.327,241.175 126.994,241.175 114.5,242.5C 114.942,243.739 115.609,244.739 116.5,245.5C 116.833,246.833 117.167,248.167 117.5,249.5C 116.507,257.984 116.174,266.651 116.5,275.5C 113.794,278.228 114.127,280.728 117.5,283C 120.146,283.497 122.813,283.664 125.5,283.5C 125.5,282.167 125.5,280.833 125.5,279.5C 126.167,280.833 126.833,282.167 127.5,283.5C 127.5,284.167 127.5,284.833 127.5,285.5C 127.232,288.119 127.565,290.619 128.5,293C 131.482,293.498 134.482,293.665 137.5,293.5C 137.833,294.167 138.167,294.833 138.5,295.5C 132.198,295.941 132.198,297.274 138.5,299.5C 139.506,300.396 139.506,301.062 138.5,301.5C 112.118,285.772 95.7851,262.772 89.5,232.5C 88.2496,220.503 88.2496,208.503 89.5,196.5C 96.934,160.881 117.267,135.381 150.5,120C 154.009,118.241 157.675,117.074 161.5,116.5 Z"/></g>
<g><path style="opacity:1" fill="#e8f0ef" d="M 211.5,241.5 C 212.672,243.844 212.672,246.177 211.5,248.5C 191.845,249.5 172.178,249.833 152.5,249.5C 152.366,247.708 152.699,246.042 153.5,244.5C 153.414,243.504 153.748,242.671 154.5,242C 173.497,241.5 192.497,241.333 211.5,241.5 Z"/></g>
<g><path style="opacity:1" fill="#eff4f4" d="M 151.5,242.5 C 150.27,244.297 149.604,246.297 149.5,248.5C 139.013,249.494 128.346,249.828 117.5,249.5C 117.167,248.167 116.833,246.833 116.5,245.5C 116.5,244.5 116.5,243.5 116.5,242.5C 128.167,242.5 139.833,242.5 151.5,242.5 Z"/></g>
<g><path style="opacity:1" fill="#aac8c2" d="M 151.5,242.5 C 139.833,242.5 128.167,242.5 116.5,242.5C 116.5,243.5 116.5,244.5 116.5,245.5C 115.609,244.739 114.942,243.739 114.5,242.5C 126.994,241.175 139.327,241.175 151.5,242.5 Z"/></g>
<g><path style="opacity:1" fill="#7faea9" d="M 117.5,221.5 C 116.8,225.798 116.467,230.131 116.5,234.5C 115.839,232.866 115.506,231.033 115.5,229C 115.3,226.134 115.967,223.634 117.5,221.5 Z"/></g>
<g><path style="opacity:1" fill="#eef4f4" d="M 127.5,239.5 C 125.396,239.799 123.396,239.466 121.5,238.5C 116.54,232.747 116.207,226.747 120.5,220.5C 124.479,215.854 128.812,211.521 133.5,207.5C 135.267,204.963 136.767,202.297 138,199.5C 141.74,202.2 142.407,205.534 140,209.5C 136.657,213.673 133.157,217.673 129.5,221.5C 126.334,227.152 125.667,233.152 127.5,239.5 Z"/></g>
<g><path style="opacity:1" fill="#f2f6f6" d="M 129.5,236.5 C 128.532,233.555 128.366,230.555 129,227.5C 133.349,221.493 138.015,215.826 143,210.5C 143.483,209.552 143.649,208.552 143.5,207.5C 143.56,206.957 143.893,206.624 144.5,206.5C 147.257,208.088 148.09,210.421 147,213.5C 144.265,218.633 141.265,223.633 138,228.5C 136.763,232.06 136.263,235.727 136.5,239.5C 134.473,239.662 132.473,239.495 130.5,239C 129.748,238.329 129.414,237.496 129.5,236.5 Z"/></g>
<g><path style="opacity:1" fill="#b3d5d1" d="M 266.5,244.5 C 264.638,254.299 263.971,264.299 264.5,274.5C 264.167,274.5 263.833,274.5 263.5,274.5C 263.5,273.5 263.5,272.5 263.5,271.5C 263.5,266.167 263.5,260.833 263.5,255.5C 262.946,251.256 263.946,247.59 266.5,244.5 Z"/></g>
<g><path style="opacity:1" fill="#eaf4f3" d="M 151.5,251.5 C 155.833,251.5 160.167,251.5 164.5,251.5C 164.5,267.5 164.5,283.5 164.5,299.5C 161.833,299.5 159.167,299.5 156.5,299.5C 156.5,287.167 156.5,274.833 156.5,262.5C 155.5,262.5 154.5,262.5 153.5,262.5C 153.5,266.833 153.5,271.167 153.5,275.5C 152.85,275.196 152.183,274.863 151.5,274.5C 150.18,266.677 150.18,259.01 151.5,251.5 Z"/></g>
<g><path style="opacity:1" fill="#f6f9f9" d="M 168.5,251.5 C 175.167,251.5 181.833,251.5 188.5,251.5C 188.5,267.5 188.5,283.5 188.5,299.5C 185.167,299.5 181.833,299.5 178.5,299.5C 179.146,286.788 178.48,274.455 176.5,262.5C 175.505,274.322 175.172,286.322 175.5,298.5C 172.833,298.5 170.167,298.5 167.5,298.5C 167.183,282.756 167.516,267.089 168.5,251.5 Z"/></g>
<g><path style="opacity:1" fill="#f8faf9" d="M 191.5,251.5 C 197.167,251.5 202.833,251.5 208.5,251.5C 208.5,267.5 208.5,283.5 208.5,299.5C 206.167,299.5 203.833,299.5 201.5,299.5C 201.5,287.167 201.5,274.833 201.5,262.5C 200.5,262.5 199.5,262.5 198.5,262.5C 198.5,274.833 198.5,287.167 198.5,299.5C 196.167,299.5 193.833,299.5 191.5,299.5C 191.5,283.5 191.5,267.5 191.5,251.5 Z"/></g>
<g><path style="opacity:1" fill="#ebf3f2" d="M 230.5,251.5 C 232.833,251.5 235.167,251.5 237.5,251.5C 237.5,256.833 237.5,262.167 237.5,267.5C 236.325,267.281 235.325,267.614 234.5,268.5C 233.752,270.332 232.752,271.999 231.5,273.5C 230.503,266.197 230.169,258.863 230.5,251.5 Z"/></g>
<g><path style="opacity:1" fill="#f2f6f7" d="M 239.5,251.5 C 243.5,251.5 247.5,251.5 251.5,251.5C 252.812,259.563 250.979,266.563 246,272.5C 244.667,269.833 242.667,267.833 240,266.5C 239.501,261.511 239.334,256.511 239.5,251.5 Z"/></g>
<g><path style="opacity:1" fill="#085b58" d="M 528.5,238.5 C 527.849,237.909 527.182,237.243 526.5,236.5C 525.158,238.005 523.492,238.672 521.5,238.5C 521.27,246.035 520.436,253.702 519,261.5C 516.928,264.154 515.261,263.82 514,260.5C 513.333,257.833 513.333,255.167 514,252.5C 514.333,253.5 514.667,254.5 515,255.5C 516.87,250.372 518.037,245.039 518.5,239.5C 516.833,239.5 515.167,239.5 513.5,239.5C 513.662,241.527 513.495,243.527 513,245.5C 508.072,251.407 507.406,257.407 511,263.5C 511.82,265.728 511.487,267.728 510,269.5C 509.551,265.895 508.384,262.562 506.5,259.5C 505.264,258.754 503.93,258.421 502.5,258.5C 502.34,260.199 502.506,261.866 503,263.5C 505.904,265.776 506.737,268.442 505.5,271.5C 501.174,267.54 499.174,262.54 499.5,256.5C 499.441,250.51 501.274,245.176 505,240.5C 514.004,230.58 525.171,225.413 538.5,225C 534.06,228.728 530.726,233.228 528.5,238.5 Z"/></g>
<g><path style="opacity:1" fill="#e9f0f2" d="M 261.5,255.5 C 261.5,260.833 261.5,266.167 261.5,271.5C 261.631,272.376 261.298,273.043 260.5,273.5C 260.113,269.78 258.113,267.78 254.5,267.5C 254.5,262.167 254.5,256.833 254.5,251.5C 256.833,251.5 259.167,251.5 261.5,251.5C 261.5,252.833 261.5,254.167 261.5,255.5 Z"/></g>
<g><path style="opacity:1" fill="#0b595b" d="M 528.5,238.5 C 524.378,248.579 524.545,258.579 529,268.5C 531.687,272.194 535.187,274.694 539.5,276C 528.495,279.896 517.828,279.229 507.5,274C 506.619,273.292 505.953,272.458 505.5,271.5C 506.737,268.442 505.904,265.776 503,263.5C 502.506,261.866 502.34,260.199 502.5,258.5C 503.93,258.421 505.264,258.754 506.5,259.5C 508.384,262.562 509.551,265.895 510,269.5C 511.487,267.728 511.82,265.728 511,263.5C 507.406,257.407 508.072,251.407 513,245.5C 513.495,243.527 513.662,241.527 513.5,239.5C 515.167,239.5 516.833,239.5 518.5,239.5C 518.037,245.039 516.87,250.372 515,255.5C 514.667,254.5 514.333,253.5 514,252.5C 513.333,255.167 513.333,257.833 514,260.5C 515.261,263.82 516.928,264.154 519,261.5C 520.436,253.702 521.27,246.035 521.5,238.5C 523.492,238.672 525.158,238.005 526.5,236.5C 527.182,237.243 527.849,237.909 528.5,238.5 Z"/></g>
<g><path style="opacity:1" fill="#0c5661" d="M 761.5,203.5 C 762.29,204.609 762.79,205.942 763,207.5C 763.167,223.51 763.667,239.51 764.5,255.5C 767.187,260.176 768.02,265.176 767,270.5C 766.503,267.854 766.336,265.187 766.5,262.5C 765.178,262.67 764.011,262.337 763,261.5C 762.536,262.094 762.369,262.761 762.5,263.5C 761.503,243.674 761.17,223.674 761.5,203.5 Z"/></g>
<g><path style="opacity:1" fill="#477b8b" d="M 261.5,255.5 C 262.167,255.5 262.833,255.5 263.5,255.5C 263.5,260.833 263.5,266.167 263.5,271.5C 262.833,271.5 262.167,271.5 261.5,271.5C 261.5,266.167 261.5,260.833 261.5,255.5 Z"/></g>
<g><path style="opacity:1" fill="#6f989c" d="M 156.5,299.5 C 156.167,299.5 155.833,299.5 155.5,299.5C 155.666,291.826 155.5,284.159 155,276.5C 154.617,275.944 154.117,275.611 153.5,275.5C 153.5,271.167 153.5,266.833 153.5,262.5C 154.5,262.5 155.5,262.5 156.5,262.5C 156.5,274.833 156.5,287.167 156.5,299.5 Z"/></g>
<g><path style="opacity:1" fill="#cee9e8" d="M 168.5,251.5 C 167.516,267.089 167.183,282.756 167.5,298.5C 170.167,298.5 172.833,298.5 175.5,298.5C 175.172,286.322 175.505,274.322 176.5,262.5C 176.5,274.833 176.5,287.167 176.5,299.5C 173.167,299.5 169.833,299.5 166.5,299.5C 165.849,283.132 166.515,267.132 168.5,251.5 Z"/></g>
<g><path style="opacity:1" fill="#629595" d="M 188.5,251.5 C 189.5,252.833 190.5,252.833 191.5,251.5C 191.5,267.5 191.5,283.5 191.5,299.5C 190.5,299.5 189.5,299.5 188.5,299.5C 188.5,283.5 188.5,267.5 188.5,251.5 Z"/></g>
<g><path style="opacity:1" fill="#e5f1f0" d="M 250.5,269.5 C 252.591,269.318 254.591,269.652 256.5,270.5C 257.833,271.833 257.833,273.167 256.5,274.5C 250.97,277.31 248.97,275.643 250.5,269.5 Z"/></g>
<g><path style="opacity:1" fill="#e7eaf0" d="M 235.5,269.5 C 243.266,269.224 244.433,271.891 239,277.5C 237.846,276.257 236.512,275.257 235,274.5C 234.616,272.803 234.782,271.137 235.5,269.5 Z"/></g>
<g><path style="opacity:1" fill="#0d5c59" d="M 398.5,254.5 C 400.141,256.287 401.141,258.454 401.5,261C 399.016,266.797 396.683,272.63 394.5,278.5C 390.445,278.824 386.445,278.491 382.5,277.5C 381.253,275.677 380.586,273.677 380.5,271.5C 381.146,269.844 381.813,268.177 382.5,266.5C 380.245,263.016 379.912,259.35 381.5,255.5C 382.978,255.762 384.311,255.429 385.5,254.5C 386.068,251.548 387.234,248.881 389,246.5C 390.815,250.13 392.649,253.797 394.5,257.5C 394.473,259.704 393.473,260.538 391.5,260C 390.62,258.644 390.286,257.144 390.5,255.5C 389.448,255.351 388.448,255.517 387.5,256C 390.872,262.04 391.205,268.207 388.5,274.5C 389.833,274.5 391.167,274.5 392.5,274.5C 392.335,271.482 392.502,268.482 393,265.5C 393.936,263.292 395.602,261.958 398,261.5C 397.577,259.097 397.744,256.763 398.5,254.5 Z"/></g>
<g><path style="opacity:1" fill="#1c655d" d="M 623.5,271.5 C 626.463,274.951 630.13,277.451 634.5,279C 628.956,278.828 623.456,277.995 618,276.5C 616.774,276.645 615.607,276.978 614.5,277.5C 613.335,268.853 613.168,260.186 614,251.5C 615.933,258.824 619.1,265.49 623.5,271.5 Z"/></g>
<g><path style="opacity:1" fill="#0e515f" d="M 623.5,271.5 C 623.631,272.376 623.298,273.043 622.5,273.5C 619.904,272.518 617.238,271.851 614.5,271.5C 614.5,269.5 614.5,267.5 614.5,265.5C 617.57,266.243 619.236,268.243 619.5,271.5C 620.833,271.5 622.167,271.5 623.5,271.5 Z"/></g>
<g><path style="opacity:1" fill="#488684" d="M 149.5,248.5 C 151.048,248.821 151.715,249.821 151.5,251.5C 150.18,259.01 150.18,266.677 151.5,274.5C 152.183,274.863 152.85,275.196 153.5,275.5C 154.117,275.611 154.617,275.944 155,276.5C 155.5,284.159 155.666,291.826 155.5,299.5C 154.876,299.917 154.543,300.584 154.5,301.5C 154.747,302.713 155.414,303.38 156.5,303.5C 156.261,305.467 156.594,307.301 157.5,309C 174.464,313.841 191.464,314.675 208.5,311.5C 210.38,311.229 211.713,311.896 212.5,313.5C 194.7,317.82 177.034,317.32 159.5,312C 152.171,309.002 145.171,305.502 138.5,301.5C 139.506,301.062 139.506,300.396 138.5,299.5C 139.833,298.167 139.833,296.833 138.5,295.5C 138.167,294.833 137.833,294.167 137.5,293.5C 139.369,291.365 140.036,288.698 139.5,285.5C 135.5,285.5 131.5,285.5 127.5,285.5C 127.5,284.833 127.5,284.167 127.5,283.5C 126.833,282.167 126.167,280.833 125.5,279.5C 123.124,276.816 120.124,275.482 116.5,275.5C 116.174,266.651 116.507,257.984 117.5,249.5C 128.346,249.828 139.013,249.494 149.5,248.5 Z"/></g>
<g><path style="opacity:1" fill="#e6f2f0" d="M 125.5,263.5 C 127.295,266.367 128.962,269.367 130.5,272.5C 127.886,277.554 124.886,277.721 121.5,273C 122.637,269.714 123.97,266.548 125.5,263.5 Z"/></g>
<g><path style="opacity:1" fill="#e2eded" d="M 139.5,264.5 C 142.076,266.777 144.076,269.611 145.5,273C 142.167,277.667 138.833,277.667 135.5,273C 137.241,270.352 138.574,267.519 139.5,264.5 Z"/></g>
<g><path style="opacity:1" fill="#f1f4f5" d="M 127.5,251.5 C 131.5,251.5 135.5,251.5 139.5,251.5C 139.665,254.85 139.498,258.183 139,261.5C 136.909,264.682 135.075,268.015 133.5,271.5C 128.131,265.926 126.131,259.259 127.5,251.5 Z"/></g>
<g><path style="opacity:1" fill="#eef2f3" d="M 118.5,251.5 C 120.833,251.5 123.167,251.5 125.5,251.5C 125.665,254.85 125.498,258.183 125,261.5C 122.886,264.732 121.053,268.065 119.5,271.5C 118.509,265.021 118.176,258.354 118.5,251.5 Z"/></g>
<g><path style="opacity:1" fill="#94bebe" d="M 118.5,251.5 C 118.176,258.354 118.509,265.021 119.5,271.5C 119.44,272.043 119.107,272.376 118.5,272.5C 117.181,265.344 117.181,258.344 118.5,251.5 Z"/></g>
<g><path style="opacity:1" fill="#ebf2f1" d="M 141.5,251.5 C 143.833,251.5 146.167,251.5 148.5,251.5C 148.83,258.2 148.497,264.866 147.5,271.5C 145.935,268.038 144.102,264.705 142,261.5C 141.502,258.183 141.335,254.85 141.5,251.5 Z"/></g>
<g><path style="opacity:1" fill="#155857" d="M 328.5,261.5 C 330.027,268.981 334.36,274.481 341.5,278C 333.5,278.667 325.5,278.667 317.5,278C 324.978,275.025 328.644,269.525 328.5,261.5 Z"/></g>
<g><path style="opacity:1" fill="#e0ebeb" d="M 116.5,275.5 C 120.124,275.482 123.124,276.816 125.5,279.5C 125.5,280.833 125.5,282.167 125.5,283.5C 122.813,283.664 120.146,283.497 117.5,283C 114.127,280.728 113.794,278.228 116.5,275.5 Z"/></g>
<g><path style="opacity:1" fill="#e3eaec" d="M 127.5,283.5 C 127.5,281.5 127.5,279.5 127.5,277.5C 130.001,276.174 132.668,275.674 135.5,276C 138.941,277.318 140.275,279.818 139.5,283.5C 135.5,283.5 131.5,283.5 127.5,283.5 Z"/></g>
<g><path style="opacity:1" fill="#e1ebeb" d="M 243.5,275.5 C 249.024,275.358 252.024,278.025 252.5,283.5C 248.167,283.5 243.833,283.5 239.5,283.5C 239.215,281.712 239.548,280.045 240.5,278.5C 241.855,277.812 242.855,276.812 243.5,275.5 Z"/></g>
<g><path style="opacity:1" fill="#e7f0f1" d="M 262.5,275.5 C 262.821,277.048 263.821,277.715 265.5,277.5C 263.717,282.565 260.05,284.565 254.5,283.5C 254.382,278.2 257.049,275.534 262.5,275.5 Z"/></g>
<g><path style="opacity:1" fill="#e9f1f2" d="M 228.5,275.5 C 234.612,274.61 237.612,277.277 237.5,283.5C 233.5,283.5 229.5,283.5 225.5,283.5C 225.572,280.447 226.572,277.781 228.5,275.5 Z"/></g>
<g><path style="opacity:1" fill="#ebf1f3" d="M 145.5,275.5 C 151.215,275.215 153.882,277.882 153.5,283.5C 149.5,283.5 145.5,283.5 141.5,283.5C 141.343,282.127 141.51,280.793 142,279.5C 143.376,278.295 144.542,276.962 145.5,275.5 Z"/></g>
<g><path style="opacity:1" fill="#c1dddc" d="M 225.5,285.5 C 229.5,285.5 233.5,285.5 237.5,285.5C 237.5,288.167 237.5,290.833 237.5,293.5C 233.5,293.5 229.5,293.5 225.5,293.5C 225.5,290.833 225.5,288.167 225.5,285.5 Z"/></g>
<g><path style="opacity:1" fill="#b5d8d8" d="M 254.5,285.5 C 259.467,285.584 259.8,286.918 255.5,289.5C 254.571,288.311 254.238,286.978 254.5,285.5 Z"/></g>
<g><path style="opacity:1" fill="#a1c3ca" d="M 121.5,285.5 C 122.833,285.5 124.167,285.5 125.5,285.5C 124.759,290.503 123.426,290.503 121.5,285.5 Z"/></g>
<g><path style="opacity:1" fill="#e9f2f0" d="M 127.5,285.5 C 131.5,285.5 135.5,285.5 139.5,285.5C 140.036,288.698 139.369,291.365 137.5,293.5C 134.482,293.665 131.482,293.498 128.5,293C 127.565,290.619 127.232,288.119 127.5,285.5 Z"/></g>
<g><path style="opacity:1" fill="#f9fcf9" d="M 226.5,286.5 C 229.833,286.5 233.167,286.5 236.5,286.5C 236.5,288.5 236.5,290.5 236.5,292.5C 233.167,292.5 229.833,292.5 226.5,292.5C 226.5,290.5 226.5,288.5 226.5,286.5 Z"/></g>
<g><path style="opacity:1" fill="#adc8cc" d="M 142.5,285.5 C 142.5,287.833 142.5,290.167 142.5,292.5C 146.167,292.5 149.833,292.5 153.5,292.5C 153.5,290.167 153.5,287.833 153.5,285.5C 154.473,287.948 154.806,290.615 154.5,293.5C 150.167,293.5 145.833,293.5 141.5,293.5C 141.194,290.615 141.527,287.948 142.5,285.5 Z"/></g>
<g><path style="opacity:1" fill="#f4f6f4" d="M 142.5,285.5 C 146.167,285.5 149.833,285.5 153.5,285.5C 153.5,287.833 153.5,290.167 153.5,292.5C 149.833,292.5 146.167,292.5 142.5,292.5C 142.5,290.167 142.5,287.833 142.5,285.5 Z"/></g>
<g><path style="opacity:1" fill="#bacfd2" d="M 251.5,292.5 C 251.5,290.5 251.5,288.5 251.5,286.5C 247.833,286.5 244.167,286.5 240.5,286.5C 240.5,288.5 240.5,290.5 240.5,292.5C 243.833,292.5 247.167,292.5 250.5,292.5C 247.038,293.482 243.371,293.815 239.5,293.5C 239.5,290.833 239.5,288.167 239.5,285.5C 243.833,285.5 248.167,285.5 252.5,285.5C 252.802,288.059 252.468,290.393 251.5,292.5 Z"/></g>
<g><path style="opacity:1" fill="#f7faf9" d="M 251.5,292.5 C 251.167,292.5 250.833,292.5 250.5,292.5C 247.167,292.5 243.833,292.5 240.5,292.5C 240.5,290.5 240.5,288.5 240.5,286.5C 244.167,286.5 247.833,286.5 251.5,286.5C 251.5,288.5 251.5,290.5 251.5,292.5 Z"/></g>
<g><path style="opacity:1" fill="#ccdcda" d="M 138.5,295.5 C 139.833,296.833 139.833,298.167 138.5,299.5C 132.198,297.274 132.198,295.941 138.5,295.5 Z"/></g>
<g><path style="opacity:1" fill="#d2dde5" d="M 239.5,295.5 C 247.21,296.124 247.21,297.457 239.5,299.5C 239.5,298.167 239.5,296.833 239.5,295.5 Z"/></g>
<g><path style="opacity:1" fill="#eef2f2" d="M 141.5,295.5 C 145.5,295.5 149.5,295.5 153.5,295.5C 153.5,299.167 153.5,302.833 153.5,306.5C 149.393,306.075 145.726,304.575 142.5,302C 141.577,299.959 141.244,297.792 141.5,295.5 Z"/></g>
<g><path style="opacity:1" fill="#4a8286" d="M 166.5,299.5 C 169.833,299.5 173.167,299.5 176.5,299.5C 176.5,287.167 176.5,274.833 176.5,262.5C 178.48,274.455 179.146,286.788 178.5,299.5C 181.833,299.5 185.167,299.5 188.5,299.5C 189.5,299.5 190.5,299.5 191.5,299.5C 193.833,299.5 196.167,299.5 198.5,299.5C 198.5,287.167 198.5,274.833 198.5,262.5C 199.5,262.5 200.5,262.5 201.5,262.5C 201.5,274.833 201.5,287.167 201.5,299.5C 203.833,299.5 206.167,299.5 208.5,299.5C 209.167,284.833 209.833,270.167 210.5,255.5C 210.667,271.503 210.5,287.503 210,303.5C 209.722,302.584 209.222,301.918 208.5,301.5C 190.801,300.847 173.468,301.514 156.5,303.5C 155.414,303.38 154.747,302.713 154.5,301.5C 154.543,300.584 154.876,299.917 155.5,299.5C 155.833,299.5 156.167,299.5 156.5,299.5C 159.167,299.5 161.833,299.5 164.5,299.5C 164.5,283.5 164.5,267.5 164.5,251.5C 165.181,266.93 165.847,282.93 166.5,299.5 Z"/></g>
<g><path style="opacity:1" fill="#e7f1ef" d="M 225.5,295.5 C 229.5,295.5 233.5,295.5 237.5,295.5C 237.5,297.833 237.5,300.167 237.5,302.5C 233.5,303.833 229.5,305.167 225.5,306.5C 225.5,302.833 225.5,299.167 225.5,295.5 Z"/></g>
<g><path style="opacity:1" fill="#f2f7f5" d="M 208.5,301.5 C 208.5,304.833 208.5,308.167 208.5,311.5C 191.464,314.675 174.464,313.841 157.5,309C 156.594,307.301 156.261,305.467 156.5,303.5C 173.468,301.514 190.801,300.847 208.5,301.5 Z"/></g>
<g><path style="opacity:1" fill="#699f9e" d="M 210.5,255.5 C 210.833,255.5 211.167,255.5 211.5,255.5C 211.5,273.833 211.5,292.167 211.5,310.5C 213.167,310.5 214.833,310.5 216.5,310.5C 217.999,311.494 219.666,311.494 221.5,310.5C 221.389,311.117 221.056,311.617 220.5,312C 217.832,312.567 215.166,313.067 212.5,313.5C 211.713,311.896 210.38,311.229 208.5,311.5C 208.5,308.167 208.5,304.833 208.5,301.5C 209.222,301.918 209.722,302.584 210,303.5C 210.5,287.503 210.667,271.503 210.5,255.5 Z"/></g>
</svg>
